<svg id="Layer_1" data-name="Layer 1" xmlns="http://www.w3.org/2000/svg" viewBox="0 0 167.32 167.32"><defs><style>.cls-1{fill:#c7c7e5;}.cls-2,.cls-27{fill:#7178b8;}.cls-10,.cls-11,.cls-12,.cls-13,.cls-14,.cls-15,.cls-16,.cls-17,.cls-18,.cls-19,.cls-2,.cls-26,.cls-27,.cls-28,.cls-3,.cls-4,.cls-5,.cls-6,.cls-7,.cls-8,.cls-9{stroke:#3c3c3b;}.cls-10,.cls-11,.cls-12,.cls-13,.cls-14,.cls-15,.cls-16,.cls-17,.cls-18,.cls-19,.cls-2,.cls-20,.cls-24,.cls-26,.cls-27,.cls-28,.cls-3,.cls-4,.cls-5,.cls-6,.cls-7,.cls-8,.cls-9{stroke-miterlimit:10;}.cls-10,.cls-11,.cls-12,.cls-13,.cls-14,.cls-2,.cls-3,.cls-4,.cls-5,.cls-6,.cls-7,.cls-8,.cls-9{stroke-width:0.75px;}.cls-3{fill:#5a595e;}.cls-4{fill:#b8b1c4;opacity:0.39;}.cls-5{fill:#807e8c;}.cls-6{fill:#b3acd0;}.cls-23,.cls-24,.cls-26,.cls-7{fill:none;}.cls-8{fill:#561a13;}.cls-28,.cls-9{fill:#dc9598;}.cls-10{fill:#f2958e;}.cls-11{fill:#fcf9f7;}.cls-12{fill:#a6626f;}.cls-13,.cls-16,.cls-17{fill:#ab7b35;}.cls-14{fill:#1d1d1b;}.cls-15{fill:#d4b489;}.cls-15,.cls-16,.cls-18,.cls-26,.cls-27,.cls-28{stroke-width:0.5px;}.cls-18,.cls-19{fill:#6f6451;}.cls-19{stroke-width:0.25px;}.cls-20{fill:#fdfdfd;stroke:#f6f6f6;stroke-width:0.15px;}.cls-21{fill:#b6b8c8;}.cls-22{fill:#6b6877;}.cls-24{stroke:#1d1d1b;stroke-width:2px;}.cls-25{fill:#ededed;}</style></defs><path class="cls-1" d="M180.18,83.67a82.65,82.65,0,0,1-82.65,82.65c-.82,0-1.64,0-2.45,0A87.22,87.22,0,0,0,107,165.4l.19,0h.14a51.51,51.51,0,0,0,6.58-1c2.62-3.16,5-7.48,5.5-11h0c5.94-3.4,2.36-5.18,2.36-5.18,1.32-1.63.55-2.41-.36-2.77a3.46,3.46,0,0,0-.83-.23,3.07,3.07,0,0,0-.56-.07,7.39,7.39,0,0,0,.76-1.8,1.7,1.7,0,0,0,0-1.17.47.47,0,0,1,.06.15.06.06,0,0,1,0,.05,4.58,4.58,0,0,1,0,1.75s0-.05,0-.08c1.9-2.67,3.28-4.78,4.41-6.52a10.93,10.93,0,0,0,4.29,1.38,1.69,1.69,0,0,1-.27-.11c3.38.27,7.3-1,10.91-3.57a33.6,33.6,0,0,0,9.72-11l.12,0-.63,3.39a1.65,1.65,0,1,0,1.3.24l.63-3.39c.42,0,.84.07,1.27.07a10.83,10.83,0,0,0,4.78-1.1l1.09,1.74a1.77,1.77,0,0,0,.29,2.24,1.63,1.63,0,0,0,2.34-.17,1.72,1.72,0,0,0-.16-2.4,1.57,1.57,0,0,0-1.36-.39l-1-1.67a11.24,11.24,0,0,0,3.87-4.17l2,1.55a1.71,1.71,0,0,0,1,2,1.64,1.64,0,0,0,2.13-1,1.73,1.73,0,0,0-1-2.2,1.56,1.56,0,0,0-1.41.13l-2.22-1.7a11.75,11.75,0,0,0,.85-4.42v-.12l3.57,0a1.64,1.64,0,0,0,2,.94,1.69,1.69,0,0,0,1.11-2.12,1.63,1.63,0,0,0-3.1-.18l-3.66,0a11.35,11.35,0,0,0-.89-3.24l2-.92a1.62,1.62,0,0,0,2.18,0,1.75,1.75,0,0,0,.2-2.41,1.64,1.64,0,0,0-2.34-.21,1.75,1.75,0,0,0-.59,1.32l-2.08,1a11.55,11.55,0,0,0-3.11-3.48l.9-1a1.64,1.64,0,0,0,2-.84,1.74,1.74,0,0,0-.74-2.29,1.64,1.64,0,0,0-2.23.76,1.77,1.77,0,0,0,0,1.44h0l-1.06,1.18a10.75,10.75,0,0,0-5-1.43l.16-3a1.72,1.72,0,0,0,1-2,1.66,1.66,0,0,0-2-1.28,1.71,1.71,0,0,0-1.25,2,1.64,1.64,0,0,0,.87,1.13h0l-.17,3.12h0a8.34,8.34,0,0,0-5.39-3.66h0a9.6,9.6,0,0,0-3.6-.43,9.91,9.91,0,0,1,4.43.34l0,0c-15.09-16.27-43.33,27.61-25.71,36.77l0,0L115.56,141h0a18.4,18.4,0,0,0-3.57.32l0,.36a3.87,3.87,0,0,0-3.37,2.32v0a23.11,23.11,0,0,1,1.21,10.69c0,.16,0,.31,0,.48a44.32,44.32,0,0,1-2.52,10.13c.16-.48.32-1,.46-1.41s.25-.8.36-1.19.22-.78.32-1.16l.06-.24c.12-.43.22-.84.31-1.25l.06-.26c.08-.36.15-.72.22-1.06s.13-.7.19-1,.12-.75.17-1.11.07-.53.1-.79l0-.29c0-.16,0-.31.05-.46a20.73,20.73,0,0,0-1.09-10.36,18.29,18.29,0,0,0-3.26-5.21s.06,0,.06,0l.33-.1c-3.18-4.68-10.38-10.74-11.9-12.09l3-9.1-.27,0,.27-.8c-9.62.88-13.76-.06-14.24-1.78h0c.6-2.2,5.62-5.21,12.35-7.51l-.76-.52.76-.26a56.64,56.64,0,0,1,6.54-2,69.46,69.46,0,0,0-16.9-11.68A93.06,93.06,0,0,1,97.1,91.09h.15c6.52,2.44,13,5,19.48,5.25h0v0c2.86-.11,7.44,1.94,10.21.68a2.79,2.79,0,0,0,1.77-1.69l.1-.09,0-.09h0a2.2,2.2,0,0,0-1-2.2l0,0c-.53-1-1.14-1.78-1.54-1.4a28,28,0,0,1-4.74-5.21c-2-3.4-4.75-8-6.75-11.31l-.45-.12-.72-.2c7.39,1.74,16.71,2.71,16.38,1.85l-.18-1.45a47.44,47.44,0,0,0-7.11-6.89q-.69-.56-1.38-1.05c-.64-.49-1.29-.94-1.95-1.37l-.62-.4A53.9,53.9,0,0,0,113,62.25c-.5.1-1,.18-1.55.25.53-.07,1-.16,1.54-.26.22-4,.37-7.49.46-10.53-.26-19.15,1.31-16.76-3.16-22.58-6.2-.89-15.4-.65-17.33-2.26C88.58,24,86,23,84.57,22.62a6.87,6.87,0,0,1,1.09.45,4,4,0,0,0-1.75-.39c.06-.11.2-.14.41-.11-1.23-.23-1.54.1-1.54.1-4,.91-10.57,8.25-15.32,14.12l-.27.35-.24.31-.06.07a2.09,2.09,0,0,0-.14.17c-.91,1.13-1.74,2.19-2.45,3.11-.11.16-.23.31-.34.45-.5.67-.94,1.24-1.28,1.71-.08.1-.15.2-.21.29s-.18.24-.25.34l-.1.13-.08.11-.08.11-.24.33c-7-.41-19.36,1.69-19.36,1.69l-.42,1.37c1.81.89,9.7,3.06,17.35,5.14-1.62,1.87-3.18,3.91-4.71,6-7,8.87-16.43,24.66-16.48,24.76a58.13,58.13,0,0,0-9.82-.67L28,82.5a3.47,3.47,0,0,0-2.2.15c1.05,0,2.12.08,3.21.17a14.81,14.81,0,0,1,1.5.73c-.64,0-1.25-.07-1.82-.08l.32.13a8.25,8.25,0,0,1,.8.37,21.64,21.64,0,0,0-3.44-1c.13.42.25.83.37,1.24s.19.66.28,1a53.31,53.31,0,0,1,2.17,12.11q.06,1.21,0,2.31a22.55,22.55,0,0,1-.17,2.28,13.63,13.63,0,0,1-.21,1.35s0,0,0,0c-.05.27-.11.53-.17.79h0c-.05.22-.11.44-.17.66s-.13.43-.2.63a5.29,5.29,0,0,1-.21.6c-.11.29-.23.57-.35.84s-.24.53-.38.78-.18.33-.27.49-.18.32-.28.47l-.27.41a13,13,0,0,1-1.95,2.18,16.38,16.38,0,0,1-3,2.11l-.44.25a78.07,78.07,0,0,0,8.62,17.62A82.65,82.65,0,1,1,180.18,83.67Z" transform="translate(-13.04)"/><path class="cls-2" d="M169.44,113.69a1.64,1.64,0,0,1-2-.94l-3.57,0v.12a11.75,11.75,0,0,1-.85,4.42l2.22,1.7a1.56,1.56,0,0,1,1.41-.13,1.73,1.73,0,0,1,1,2.2,1.64,1.64,0,0,1-2.13,1,1.71,1.71,0,0,1-1-2l-2-1.55a11.24,11.24,0,0,1-3.87,4.17l1,1.67a1.57,1.57,0,0,1,1.36.39,1.72,1.72,0,0,1,.16,2.4,1.63,1.63,0,0,1-2.34.17,1.77,1.77,0,0,1-.29-2.24l-1.09-1.74a10.83,10.83,0,0,1-4.78,1.1c-.43,0-.85,0-1.27-.07l-.63,3.39a1.66,1.66,0,1,1-1.3-.24l.63-3.39-.12,0a10.9,10.9,0,0,1-4.17-2.07l-2.12,2.37a1.77,1.77,0,0,1,0,1.46,1.64,1.64,0,0,1-2.22.77.41.41,0,0,1-.11-.07s0,0-.06,0a1.73,1.73,0,0,1-.59-2.18,1.64,1.64,0,0,1,2-.85l2.09-2.34a11.51,11.51,0,0,1-3-5.09l-4.07,1a1.69,1.69,0,0,1-.82,1.18,1.63,1.63,0,0,1-2.26-.65,1.74,1.74,0,0,1,.65-2.32,1.62,1.62,0,0,1,2.14.46l4.07-1a11.42,11.42,0,0,1-.15-1.87,12,12,0,0,1,.26-2.5l-1.38-.41a1.63,1.63,0,0,1-1.28.63,1.72,1.72,0,0,1,0-3.43,1.65,1.65,0,0,1,1.63,1.5l1.4.41a11.47,11.47,0,0,1,2.92-4.64l-1.11-1.57a1.65,1.65,0,0,1-1.39-.32,1.75,1.75,0,0,1-.3-2.4,1.64,1.64,0,0,1,2.33-.31,1.73,1.73,0,0,1,.41,2.21l1.08,1.52a10.94,10.94,0,0,1,2.55-1.46h0a10.45,10.45,0,0,1,3.15-.76h0l.17-3.12h0A1.64,1.64,0,0,1,151,97.1a1.71,1.71,0,0,1,1.25-2,1.66,1.66,0,0,1,2,1.28,1.72,1.72,0,0,1-1,2l-.16,3a10.75,10.75,0,0,1,5,1.43l1.06-1.18h0a1.77,1.77,0,0,1,0-1.44,1.64,1.64,0,0,1,2.23-.76,1.74,1.74,0,0,1,.74,2.29,1.64,1.64,0,0,1-2,.84l-.9,1A11.55,11.55,0,0,1,162.3,107l2.08-1a1.75,1.75,0,0,1,.59-1.32,1.64,1.64,0,0,1,2.34.21,1.75,1.75,0,0,1-.2,2.41,1.62,1.62,0,0,1-2.18,0l-2,.92a11.35,11.35,0,0,1,.89,3.24l3.66,0a1.63,1.63,0,0,1,3.1.18A1.69,1.69,0,0,1,169.44,113.69Z" transform="translate(-13.04)"/><path class="cls-3" d="M147.1,97.62a9.91,9.91,0,0,0-4.43-.34c-13.63,1.78-28.45,28.09-19,38-.42-.12-.82-.27-1.2-.42h0l-.08,0a8.53,8.53,0,0,1-1-.46c-17.62-9.16,10.62-53,25.71-36.77Z" transform="translate(-13.04)"/><path class="cls-4" d="M149,108.45c0,.14,0,.28,0,.42s0,.28-.05.42h0c0,.09,0,.18,0,.27a.41.41,0,0,1,0,.11v0a33.67,33.67,0,0,1-3.5,10.66c-.06.1-.11.21-.16.3s-.17.33-.25.48-.18.31-.26.46l-.24.4c-.22.38-.45.75-.68,1.12a33.22,33.22,0,0,1-2.5,3.47,28.68,28.68,0,0,1-5.51,5.24,21.41,21.41,0,0,1-3.57,2.08,16.33,16.33,0,0,1-9,1.5,3.13,3.13,0,0,1-.42,0,6,6,0,0,1-.46-.54s-.07-.06-.07-.1h0c-8.42-10.58,6.86-36.71,20.43-37.44a9.6,9.6,0,0,1,3.6.43,12,12,0,0,1,2.22,4.41l.09.32a.5.5,0,0,1,0,.12A19.12,19.12,0,0,1,149,108.45Z" transform="translate(-13.04)"/><path class="cls-3" d="M125.83,136.59c-.17.27-.35.56-.54.84-1.13,1.74-2.51,3.85-4.41,6.52,0,0,0,.05,0,.08a4.58,4.58,0,0,0,0-1.75.06.06,0,0,0,0-.05.47.47,0,0,0-.06-.15l0-.1a.05.05,0,0,0,0,0l0,0c-.36-.7-1.14-.84-2-.84h-.37c-.63,0-1.31.08-1.93.05a4.07,4.07,0,0,1-.61-.07h-.17l5.78-6.63,0,0,.22-.25a5.85,5.85,0,0,0,.65.6h0c.06,0,.1.09.15.13h0a6.69,6.69,0,0,0,.78.54l.1.07a0,0,0,0,0,0,0A11,11,0,0,0,125.83,136.59Z" transform="translate(-13.04)"/><path class="cls-5" d="M129.31,138.7a1.69,1.69,0,0,0,.27.11,10.93,10.93,0,0,1-4.29-1.38,8.26,8.26,0,0,1-2.48-2c.16,0,.34.06.5.09a14.07,14.07,0,0,0,8.91-1.57,28.75,28.75,0,0,0,3.51-2.12l.06,0,4.43,3.3C136.61,137.67,132.69,139,129.31,138.7Z" transform="translate(-13.04)"/><path class="cls-6" d="M151.07,121.92c-.34.74-.72,1.47-1.13,2.21a33.6,33.6,0,0,1-9.72,11l-4.43-3.3-.06,0a30.1,30.1,0,0,0,3-2.57c.68-.65,1.36-1.35,2-2.1l.49-.57.57-.69a35.76,35.76,0,0,0,2.67-3.86l.24-.4c.08-.15.18-.3.26-.46a32.24,32.24,0,0,0,3.2-7.78,1.34,1.34,0,0,0,.07-.27,2.58,2.58,0,0,0,.12-.5c0-.08,0-.15.06-.22.09-.46.19-.94.27-1.4.06-.29.1-.58.14-.86s0-.28,0-.41v0a.41.41,0,0,0,0-.11,1.26,1.26,0,0,0,0-.27h0c0-.14,0-.28.05-.42s0-.28,0-.42l4.95,2.4a.06.06,0,0,0,0,0C154.09,111.69,154.44,115.63,151.07,121.92Z" transform="translate(-13.04)"/><path class="cls-5" d="M154,110.06v.06c0,.46,0,.73,0,.73l-4.95-2.4a26.69,26.69,0,0,0-.43-5.89.5.5,0,0,0,0-.12c0-.11-.05-.21-.08-.32a8.35,8.35,0,0,0-2.23-4.41h0a8.34,8.34,0,0,1,5.39,3.66,12.22,12.22,0,0,1,1.49,3.11c.13.39.24.77.34,1.17s.21,1,.3,1.48A21.08,21.08,0,0,1,154,110.06Z" transform="translate(-13.04)"/><path class="cls-7" d="M68.83,83.61c-.13.28-.26.54-.37.79-.41.9-.71,1.65-1,2.56l-.16,0a8.09,8.09,0,0,1,.4-1.38.09.09,0,0,1,0-.07A5.28,5.28,0,0,1,68.83,83.61Z" transform="translate(-13.04)"/><path class="cls-7" d="M74.13,87.67a1.58,1.58,0,0,0-.15.12,3.54,3.54,0,0,0-.42.35A1.36,1.36,0,0,1,74.13,87.67Z" transform="translate(-13.04)"/><path class="cls-7" d="M81.42,86.89h0Z" transform="translate(-13.04)"/><path class="cls-7" d="M117.51,80.79c-1.88-3.13-2.33-3.65-3.67-5.82l-.72-.2-.08,0-1.89-.57-1.32-.42-.69-.23a1.45,1.45,0,0,1,.21.22h0a10,10,0,0,1,.85,1c.2.26.39.52.56.79a.47.47,0,0,1,.09.12l0,0,.26.43a30.36,30.36,0,0,1,1.44,2.69s0,0,0,0l-.06,0h-.09s0,0,0,0h0a8,8,0,0,1-1.8,0c-.32,0-.66-.08-1-.15l-.44-.09-.08,0c-.19,0-.4-.08-.6-.13-.37-.1-.75-.22-1.13-.35a9.13,9.13,0,0,1-1.11-.49,5.84,5.84,0,0,1-.8-.48,4.93,4.93,0,0,1-.63-.5,2.5,2.5,0,0,1-.32-.33l0,0a3.9,3.9,0,0,1-.4-.51l-.11,0a11.24,11.24,0,0,1-2.94.74C111.79,88.93,121,86.4,121,86.4,120.52,85.66,119.51,84,117.51,80.79ZM127.34,93l0,0-1.54-1.4a10.05,10.05,0,0,1-.75.68l-.39.3-.45.33c-.73.55-.54.71.1,4l2.24.2a2.79,2.79,0,0,0,1.77-1.69.64.64,0,0,0,.06-.18h0A2.2,2.2,0,0,0,127.34,93Z" transform="translate(-13.04)"/><path class="cls-8" d="M126.51,96.92c-2.77,1.24-7.35-.78-10.21-.67,0-.12-.64-2.2-5.26-4.08a25.28,25.28,0,0,0-4.89-1.46,11.39,11.39,0,0,0-2.67-.23h0L102,89.63l-.31-.19-.29-.17-.23-.14-.31-.19c-.52-.31-1-.65-1.58-1-.22-.15-.46-.3-.7-.44l-.37-.24h0L97.73,87h0c-1.28-.82-2.59-1.67-3.93-2.47h0l-.44-.28h0a44,44,0,0,0-5.55-2.84l-.1,0a19.79,19.79,0,0,0-8.83-1.68,18.1,18.1,0,0,0-10,4,4.77,4.77,0,0,1,.37-1.18,8.59,8.59,0,0,1,4-3.73l0,0a20.8,20.8,0,0,1,6.08-2h0a4.85,4.85,0,0,1,1.38,0s7.15.49,11.29-.19h0a4.74,4.74,0,0,0,2.58-1c.52-.57.2-1.37-1.5-2.49-.36-.24-.72-.5-1.06-.77a23,23,0,0,1-6.77-9h0c-.07-.14-.13-.29-.19-.44,3.17,1.51,7.21,3.56,11.13,5.46l.62.3c.4.19.8.37,1.2.57s.7.31,1,.48c2.39,1.12,4.65,2.13,6.55,2.84a15.28,15.28,0,0,0-2.76,0,1.6,1.6,0,0,0-.11,1.5.12.12,0,0,0,0,.08A5.49,5.49,0,0,0,104,75.92l-.11,0a11.06,11.06,0,0,1-2.94.72c10.81,12.19,20.06,9.7,20.06,9.7a27.77,27.77,0,0,0,4.74,5.13c-.28.27-.53.49-.75.67l-.39.29-.45.33c-.73.54-.54.7.1,3.92Z" transform="translate(-13.04)"/><path class="cls-9" d="M121,86.4s-9.25,2.53-20.06-9.86a11.24,11.24,0,0,0,2.94-.74l.11,0a3.9,3.9,0,0,0,.4.51l0,0a2.5,2.5,0,0,0,.32.33,4.93,4.93,0,0,0,.63.5,5.84,5.84,0,0,0,.8.48,9.13,9.13,0,0,0,1.11.49c.38.13.76.25,1.13.35.2,0,.41.1.6.13l.08,0,.44.09,1,.15a8,8,0,0,0,1.8,0h0l.06,0h0l.06,0s0,0,0,0a30.36,30.36,0,0,0-1.44-2.69c-.1-.15-.19-.3-.28-.45a.47.47,0,0,0-.09-.12c-.17-.27-.36-.53-.56-.79a10,10,0,0,0-.86-1,1.45,1.45,0,0,0-.21-.22l.69.23,1.32.42,1.89.57.08,0,.72.2.45.12C116.29,78.4,119,83,121,86.4Z" transform="translate(-13.04)"/><path class="cls-10" d="M128.85,95.36l-.11.09-1.94,1.66-2.46-.2c-.7-3.22-.91-3.38-.11-3.92l.5-.32.43-.3c.24-.18.51-.39.82-.67s1.1.42,1.68,1.38a19.42,19.42,0,0,1,1.14,2.18h0A.44.44,0,0,1,128.85,95.36Z" transform="translate(-13.04)"/><path class="cls-11" d="M112.58,78.78c-1.55,1-11.21-1.87-9.68-6.53a14.85,14.85,0,0,1,2.77,0C109.23,72.89,111.38,75.76,112.58,78.78Z" transform="translate(-13.04)"/><path class="cls-9" d="M116.65,96.43c-6.46-.2-13-2.82-19.53-5.31h0c-1.16-.43-2.31-.86-3.47-1.27l-.49-.18h0a64.09,64.09,0,0,0-6.61-2l-.63-.14a31.29,31.29,0,0,0-4.22-.72h-.09l-.85-.12c-.55-.06-1.08-.11-1.58-.13l-.61,0h0a3.39,3.39,0,0,0-.45,0h-.34l-.46,0-.33.06-.21,0-.4.1-.37.1a4.38,4.38,0,0,0-1,.45,1,1,0,0,0-.27.17,4.17,4.17,0,0,0-.44.29,3.7,3.7,0,0,0-.42.37,0,0,0,0,1,0,0L67.66,87a5,5,0,0,1,1-2.67c2.3-3.13,7.83-4.67,10.37-5.1.86-.15,1.38-.19,1.33-.11,1.6-.59,4.4.3,7.52,1.82l.1,0c1.73.85,3.54,1.89,5.32,2.94h0l.5.3c1.45.87,2.85,1.76,4.12,2.59h0l.44.3h0l.38.24c.24.16.48.31.7.47l1.59,1,.31.2.23.14.29.19.31.19a14.53,14.53,0,0,0,1.5.88h0a10.73,10.73,0,0,1,2.67.23,23.9,23.9,0,0,1,4.9,1.5C116,94.11,116.62,96.31,116.65,96.43Z" transform="translate(-13.04)"/><path class="cls-7" d="M68.83,83.61c-.13.28-.26.54-.37.79-.41.9-.71,1.65-1,2.56l-.16,0a8.09,8.09,0,0,1,.4-1.38.09.09,0,0,1,0-.07A5.28,5.28,0,0,1,68.83,83.61Z" transform="translate(-13.04)"/><path class="cls-7" d="M74.42,87.51l-.15.08" transform="translate(-13.04)"/><path class="cls-12" d="M94.65,75.35c-.09.5-.84.81-2.58,1h0c-2.13.21-5.71.24-11.29.19q-.67,0-1.38.06h0a14.93,14.93,0,0,0-6.08,2l0,0a12.82,12.82,0,0,0-5.51,6.85.09.09,0,0,0,0,.07,13.89,13.89,0,0,0-.4,1.38,123.67,123.67,0,0,0-29.14-4.4A153.74,153.74,0,0,1,54.17,58.57c1.53-2.09,3.09-4.13,4.71-6l.13-.15c3.88,1.1,6.89,2,9.4,2.79a.9.9,0,0,0,.22.06c3,1,5.32,1.83,7.61,2.82l.07,0c.26.12.54.24.8.34l.16.08.93.43.19.09c1.87.88,3.87,1.9,6.34,3.18l.39.2c.06.15.13.3.2.44A31.43,31.43,0,0,0,92.09,72C93.66,73.61,94.77,74.66,94.65,75.35Z" transform="translate(-13.04)"/><path class="cls-7" d="M68.83,83.61c-.13.28-.26.54-.37.79-.41.9-.71,1.65-1,2.56l-.16,0a8.09,8.09,0,0,1,.4-1.38.09.09,0,0,1,0-.07A5.28,5.28,0,0,1,68.83,83.61Z" transform="translate(-13.04)"/><path class="cls-13" d="M113.08,51.81l-.74-.08-.41,0-1.07-.15-.66-.1c-.69-.1-1.51-.23-2.43-.4l-1.46-.27-2-.41-1.94-.42h0a.53.53,0,0,1,.06-.1.08.08,0,0,1,0,0,17.65,17.65,0,0,0,.93-2.2,9.27,9.27,0,0,0,.33-1.14,5.27,5.27,0,0,0,.1-.52c0-.14,0-.27.05-.4a4.74,4.74,0,0,0,0-.84,3.34,3.34,0,0,0-2.74-3l-.34-.09a5.55,5.55,0,0,0-.73-.13l-.35,0-.52-.05a13.68,13.68,0,0,0-1.82,0h-.19c-.23,0-.47,0-.71,0l-.9.06c-.22,0-.45,0-.68.07-.53.05-1,.11-1.58.18l-1.56.21h-.11a15.38,15.38,0,0,0-5.46,1.78l-.24.15a7.67,7.67,0,0,0-1.25.85,154.07,154.07,0,0,1-17.57-7.76C71.8,31,78.41,23.68,82.37,22.77c0,0,.31-.33,1.54-.1-.21,0-.35,0-.41.11s1.41,14.38,20.38,15.61c0,0-8-4.38-10.32-8.09a17.31,17.31,0,0,0-3.12-3.44s0,0,0,0a29,29,0,0,0-5.09-3.62l-.06,0a6.87,6.87,0,0,0-1.09-.45c1.45.34,4,1.38,8.43,4.25,1.93,1.61,11.13,1.37,17.33,2.26C114.39,35.05,112.82,32.66,113.08,51.81Z" transform="translate(-13.04)"/><circle class="cls-14" cx="97.41" cy="77.4" r="1.19"/><path class="cls-7" d="M193.26,87.28" transform="translate(-13.04)"/><polygon class="cls-7" points="72.84 62.52 72.68 62.79 62.01 57.14 72.49 62.34 72.84 62.52"/><path class="cls-7" d="M85.23,56.86a.21.21,0,0,0,0,.06.63.63,0,0,1-.15-.08Z" transform="translate(-13.04)"/><path class="cls-7" d="M109.72,153.68c0,.46-.06.93-.1,1.42,0,.15,0,.3-.05.46l0,.29c0,.26-.06.52-.1.79s-.11.74-.17,1.11-.12.68-.19,1-.14.7-.22,1.06l-.06.26c-.1.41-.2.83-.31,1.25l-.06.24c-.1.38-.21.77-.32,1.16s-.23.79-.36,1.19-.3.93-.46,1.41h-.14a43.17,43.17,0,0,0,2.23-10.91l0-.65v-.12a.76.76,0,0,0,0-.15v-.15a1.48,1.48,0,0,0,0-.21,24.94,24.94,0,0,0-1.05-8.12l.13-.27s0,0,0,0A23.1,23.1,0,0,1,109.72,153.68Z" transform="translate(-13.04)"/><path class="cls-15" d="M101.45,105.43a56.64,56.64,0,0,0-6.54,2A214.17,214.17,0,0,0,75.63,96.55l-1.56-.79c-4.18-2.05-8.45-4-12.64-5.7-2.26-.92-4.5-1.78-6.69-2.56q-2.37-.85-4.67-1.56a68,68,0,0,0-11.4-2.62l-.53-.07a0,0,0,0,1,0,0L38.3,83a1.51,1.51,0,0,1,.11-.22A116,116,0,0,1,75,89.63l.54.2q2.88,1.08,5.69,2.35l.36.16c.8.36,1.59.74,2.38,1.14.18.08.37.17.55.27A69.46,69.46,0,0,1,101.45,105.43Z" transform="translate(-13.04)"/><path class="cls-16" d="M109.42,153.1v.45a.76.76,0,0,1,0,.15v.12c0,.2,0,.4,0,.6v0c0,.06,0,.12,0,.18s0,.39,0,.59,0,.68-.09,1a37.78,37.78,0,0,1-.9,5.45s0,0,0,0c0,.16-.09.32-.14.48v0c-.07.31-.16.62-.25.94s-.23.82-.36,1.22l-.09.3h0c-.07.23-.15.46-.23.69h-.11l-.19,0c-2.91.3-10.88.55-16.55.61H88.22c-1,0-2,0-2.62,0h0l.18-.17.27-.26c2-1.95,4.33-4,6.58-6.07a46.78,46.78,0,0,0,8.75-10.13.62.62,0,0,0-.1-.66S85,152.35,74.05,162.92l-.48.46h0l-.16,0-.16-.05h0l-1.61-.49h0l.63-.41,1.8-1.2.61-.4.28-.18,1.09-.73,1.63-1.07,1.65-1.08.15-.1.75-.49,2.88-1.88,1.74-1.14,1.42-.92,1.86-1.2,4.13-2.64,1-.62,2.08-1.31,1.62-1,1.66-1,.19-.12.57-.34c1-.58,1.83-1.07,2.53-1.44l.69-.36.18-.09.22-.1.21-.1a2.54,2.54,0,0,1,.34-.13l.16-.05h.11l-.1,0L98,141.71h0l1-.29.24-.08.3-.1.37-.12.3-.1,4.54-1.42h.07l.37-.12,0,0s0,0,0,0,0,0,0,0h0a16.31,16.31,0,0,1,2.27,3.75l.11.24a4.77,4.77,0,0,1,.22.52A25,25,0,0,1,109.42,153.1Z" transform="translate(-13.04)"/><path class="cls-7" d="M107.59,164.36l-.09.3-.21.7h0c.08-.23.16-.46.23-.69Z" transform="translate(-13.04)"/><path class="cls-7" d="M109.62,155.1c0,.15,0,.3-.05.46a62.35,62.35,0,0,1-1.37,6.62s.14-.49.14-.48c0,.16-.09.32-.14.48a41.73,41.73,0,0,0,1-6q.06-.51.09-1c0-.2,0-.39,0-.59v-.15a0,0,0,0,1,0,0v0c0-.2,0-.4,0-.6v-.12a.76.76,0,0,0,0-.15v-.45a22.53,22.53,0,0,0-1.55-9.06,4.77,4.77,0,0,0-.22-.52l-.11-.24a12.66,12.66,0,0,0-.63-1.14c-.54-.92-1.09-1.77-1.65-2.61h0a18.29,18.29,0,0,1,3.26,5.21A20.73,20.73,0,0,1,109.62,155.1Z" transform="translate(-13.04)"/><path class="cls-15" d="M86.49,166c5.1-4.88,16.25-15.9,14.66-17.31a83.7,83.7,0,0,0-12.09,4.49h0a54.37,54.37,0,0,0-15,9.83h0a.47.47,0,0,0-.14.46C75.6,163.71,83.94,166,86.49,166Z" transform="translate(-13.04)"/><path class="cls-7" d="M77.18,97.38C61.41,89.22,43.56,83.87,29.05,82.82c-1.09-.09-2.16-.14-3.21-.17.81-.06,1.62-.09,2.44-.09a58.13,58.13,0,0,1,9.82.67h0l.52.08a86.35,86.35,0,0,1,11.4,2.62c2.3.68,4.62,1.46,6.94,2.31,2.72,1,5.45,2.1,8.17,3.3l.06,0c3,1.3,5.91,2.71,8.83,4.19l1.56.79Z" transform="translate(-13.04)"/><path class="cls-7" d="M28.73,82.69c-1.88-.08-2.89,0-2.89,0A3.47,3.47,0,0,1,28,82.5l.24.06A3.81,3.81,0,0,1,28.73,82.69Z" transform="translate(-13.04)"/><path class="cls-17" d="M97.47,117.7l-3.08,9.19-.2.61-.11.33c-.22-.32-.46-.66-.72-1l0,0c-2.64-3.4-7.54-7.18-17.36-1.62l-.13,0h0c-.25.05-.56.12-.9.16h-.27c-5.78.63-23-.55-34.79-5.25l-.1,0a.05.05,0,0,1,0,0c-5.11-2.05-9.19-4.77-10.86-8.29,0,0,.38.23,1.06.58,3.76,2,16.49,8.2,22.29,3a6.61,6.61,0,0,0,1.06-1.21l-.43-.45c-2.55-2.84-11-13.22-14.46-19.77l-.09-.18c-.05-.1-.09-.19-.14-.27-1-2-1.52-3.54-1.23-4.39h0a.47.47,0,0,1,.06-.15l0,0-.1-.1a27.59,27.59,0,0,0-7.21-5.76c-.27-.14-.54-.27-.81-.38l-.33-.13c.58,0,1.2,0,1.84.08a108.06,108.06,0,0,1,15.74,2.46c3,.68,6,1.47,8.76,2.32.64.2,1.26.4,1.85.61l.45.15c3.55,1.19,6.93,2.43,10.23,3.82a148.81,148.81,0,0,1,27.38,15l.77.52c-6.82,2.33-11.9,5.37-12.51,7.59h0c-.59,2.2,3.23,3.59,14.15,2.61Z" transform="translate(-13.04)"/><path class="cls-8" d="M119.37,153.3l-1.73,4.5c-.71,1.15-1,3.74-3.61,6.9a51.51,51.51,0,0,1-6.58,1A44.32,44.32,0,0,0,110,155.61c0-.17,0-.32,0-.48a23.11,23.11,0,0,0-1.21-10.69v0a4,4,0,0,1,3.21-2.7h0a20.28,20.28,0,0,1,3.71-.3h.15a3.9,3.9,0,0,1,.5.19l.11-.12.07-.09h.08c.77,0,1.5,0,2.14,0h0c1,.08,1.7.29,2,.84l0,0a.05.05,0,0,1,0,0l0,.1a1.7,1.7,0,0,1,0,1.17,7.39,7.39,0,0,1-.76,1.8,3.07,3.07,0,0,1,.56.07,3.46,3.46,0,0,1,.83.23c.91.36,1.68,1.14.36,2.77C121.9,148.5,125.31,149.9,119.37,153.3Z" transform="translate(-13.04)"/><path class="cls-15" d="M93.76,127.37l-.2-.18a2.07,2.07,0,0,1-.59-.4,1.37,1.37,0,0,0-.16-.18l0,0s0,0,0,0l0,0a35.93,35.93,0,0,0-3.54-2.68c-.38-.22-.77-.42-1.16-.6s-.53-.23-.8-.33l-.41-.14a8.19,8.19,0,0,0-.81-.23A8,8,0,0,0,79,124a20.4,20.4,0,0,1-3.58,1h0l-.67.11-.34.05h-.15l-.22,0c-8.94,1.23-23.07-.34-33.56-5L39.9,120l-.1,0,0,0a28.33,28.33,0,0,1-9.39-6.5c-.1-.11-.2-.23-.29-.35a13.36,13.36,0,0,1-1-1.36s16.31,9.63,23.06,3.51a6.24,6.24,0,0,0,.63-.87l.17-.31-.11-.12-.22-.26c-.64-.75-2.18-2.58-4-5-.27-.34-.54-.7-.82-1.07a118.09,118.09,0,0,1-8.83-12.77c-.16-.28-.3-.55-.44-.81l-.09-.18q-.15-.27-.27-.54A10,10,0,0,1,37,90h0a1.37,1.37,0,0,1,0-.28,2.11,2.11,0,0,1,.09-.64h0a18.89,18.89,0,0,0-7.2-5,21.64,21.64,0,0,0-3.44-1c.13.42.25.83.37,1.24s.19.66.28,1a53.31,53.31,0,0,1,2.17,12.11q.06,1.21,0,2.31a22.55,22.55,0,0,1-.17,2.28,13.63,13.63,0,0,1-.21,1.35s0,0,0,0c-.05.27-.11.53-.17.79h0c-.05.22-.11.44-.17.66s-.13.43-.2.63a5.29,5.29,0,0,1-.21.6,7.87,7.87,0,0,1-.47,1.11c-.08.17-.17.35-.26.51s-.18.33-.27.49-.18.32-.28.47l-.27.41a13,13,0,0,1-1.95,2.18,16.38,16.38,0,0,1-3,2.11l-.44.25a78.07,78.07,0,0,0,8.62,17.62l.3.43a78.32,78.32,0,0,0,31.69,27.42l.39-.53.68-.93L64,156c.3-.41.6-.8.89-1.17l.31-.41c.73-.94,1.38-1.76,1.91-2.36l-2.62,7.4-.22.61a77.75,77.75,0,0,0,7.34,2.74h0l.4-.49.83-1c.86-1,1.81-2,2.84-3.12.26-.28.53-.55.8-.83l.83-.83c.84-.84,1.73-1.68,2.66-2.52.46-.42.93-.83,1.41-1.24.73-.63,1.48-1.24,2.24-1.84s1.53-1.18,2.33-1.73h0c1.1-.78,2.22-1.5,3.37-2.18l.64-.36c.42-.24.85-.47,1.28-.7.67-.34,1.35-.68,2-1l.44-.2.65-.26.84-.32.38-.14c.22-.07.43-.15.65-.21l.08,0a6.59,6.59,0,0,1,.72-.22l.3-.08c.33-.1.67-.19,1-.26a21.85,21.85,0,0,1,5.32-.62l1.16.05-6.84-1h0a7.1,7.1,0,0,0,1-.29l.24-.08.3-.1.37-.12.3-.1c1.58-.53,3.59-1.21,4.54-1.42h.07a1.57,1.57,0,0,1,.42,0h0s.06,0,.06,0l.33-.1C102.48,134.78,95.28,128.72,93.76,127.37Zm-6.7,12.09-.35-.42v.1l-6.93-8.23.31.09a1.78,1.78,0,0,1,.29.12h.06a4.66,4.66,0,0,1,.45.22c.26.13.51.29.78.46l.1.07.42.31.42.34h0a4.6,4.6,0,0,1,.46.43c.12.09.24.21.36.32l.29.29.29.3.27.3a2.61,2.61,0,0,1,.27.31l.27.31.31.39.27.35c.2.28.4.55.57.82s.16.24.23.36l.27.45,0,.1c.09.16.17.32.24.47s0,0,0,.05.14.31.2.46a1.9,1.9,0,0,1,.09.29,1.79,1.79,0,0,1,.1.56h0A.58.58,0,0,1,87.06,139.46Z" transform="translate(-13.04)"/><path class="cls-18" d="M67.12,152.05l-2.84,8c-.83-.35-1.65-.73-2.46-1.12C63.76,156.29,65.83,153.53,67.12,152.05Z" transform="translate(-13.04)"/><path class="cls-7" d="M129.91,76.52l-.18-1.45a47.44,47.44,0,0,0-7.11-6.89q-.69-.56-1.38-1.05c-.64-.49-1.29-.94-1.95-1.37l-.62-.4A53.9,53.9,0,0,0,113,62.25c-.5.1-1,.18-1.55.25.53-.07,1-.16,1.54-.26.22-4,.37-7.49.46-10.53-.26-19.15,1.31-16.76-3.16-22.58-6.2-.89-15.4-.65-17.33-2.26C88.58,24,86,23,84.57,22.62a6.87,6.87,0,0,1,1.09.45,4,4,0,0,0-1.75-.39c.06-.11.2-.14.41-.11-1.23-.23-1.54.1-1.54.1-4,.91-10.57,8.25-15.32,14.12l-.27.35-.24.31-.06.07a2.09,2.09,0,0,0-.14.17c-.91,1.13-1.74,2.19-2.45,3.11-.11.16-.23.31-.34.45-.5.67-.94,1.24-1.28,1.71-.08.1-.15.2-.21.29s-.18.24-.25.34l-.1.13-.08.11-.08.11-.24.33c-7-.41-19.36,1.69-19.36,1.69l-.42,1.37c1.81.89,9.7,3.06,17.35,5.14-1.62,1.87-3.18,3.91-4.71,6a153.74,153.74,0,0,0-16.06,24,123.67,123.67,0,0,1,29.14,4.4l.16,0L74,88.05h0a3.54,3.54,0,0,1,.42-.35,4.08,4.08,0,0,1,.44-.28,1.2,1.2,0,0,1,.27-.16,5.75,5.75,0,0,1,1-.42l.37-.1.4-.09.21,0,.33,0,.46,0h.81l.61,0,.39,0,.58,0,.61.07.85.12h.09a34.31,34.31,0,0,1,4.21.72l.63.14c2.2.53,4.4,1.22,6.6,2h0l.49.18c1.15.4,2.3.83,3.46,1.25h0c6.52,2.44,13,5,19.48,5.25,2.86-.11,7.44,1.94,10.21.68a2.79,2.79,0,0,0,1.77-1.69l.1-.09,0-.09h0a2.2,2.2,0,0,0-1-2.2l0,0c-.53-1-1.14-1.78-1.54-1.4a28,28,0,0,1-4.74-5.21c-2-3.4-4.75-8-6.75-11.31l-.45-.12-.72-.2C120.92,76.41,130.24,77.38,129.91,76.52ZM116.73,96.33h0Z" transform="translate(-13.04)"/><path class="cls-18" d="M103.68,142.69c-3.09.73-32.48,20.49-30.76,18.53.28-.33.58-.65.88-1s.59-.66.91-1c.92-1,1.9-2,2.92-3,.51-.5,1-1,1.55-1.48.81-.75,1.63-1.48,2.47-2.19s1.69-1.4,2.56-2.07a0,0,0,0,0,0,0C90.14,146,96.86,142.6,103.68,142.69Z" transform="translate(-13.04)"/><path class="cls-19" d="M87.06,139.46l-.35-.42v.1l-6.93-8.23C83.33,131.79,88,138.4,87.06,139.46Z" transform="translate(-13.04)"/><path class="cls-7" d="M0,17.85" transform="translate(-13.04)"/><path class="cls-20" d="M98.48,89.29c-1.63.14-3.21.32-4.71.53a98.32,98.32,0,0,0-12.15,2.52c-1.64.45-2.67.8-2.9.87.82-.37,1.67-.72,2.54-1a51.5,51.5,0,0,1,12-2.54h0C95,89.47,96.78,89.35,98.48,89.29Z" transform="translate(-13.04)"/><path class="cls-20" d="M117.46,90.34a107,107,0,0,0-15.66-1.11c-1.06,0-2.16,0-3.27.06,1-.09,2-.15,3-.2A59.32,59.32,0,0,1,117.46,90.34Z" transform="translate(-13.04)"/><path class="cls-20" d="M78.72,85.07s21.55-3.33,38.7,4C117.42,89.07,94.49,81,78.72,85.07Z" transform="translate(-13.04)"/><path class="cls-20" d="M90.92,87.18c-1.46.13-2.88.29-4.25.47a96.41,96.41,0,0,0-11.1,2.18c-2.29.59-3.82,1.08-4.29,1.23A31.87,31.87,0,0,1,75,89.63a54,54,0,0,1,11-2.12C87.68,87.34,89.32,87.24,90.92,87.18Z" transform="translate(-13.04)"/><path class="cls-20" d="M109.92,88.23a103.7,103.7,0,0,0-11.31-1h0c-2.35-.09-4.93-.12-7.62,0,2.31-.19,4.71-.3,7.16-.27h0A54.78,54.78,0,0,1,109.92,88.23Z" transform="translate(-13.04)"/><path class="cls-21" d="M73.74,88.65s1.83-3.62,10.9-1l-9.3,1.63Z" transform="translate(-13.04)"/><path class="cls-21" d="M76.28,89.73,81.62,92a64.24,64.24,0,0,1,10.72-2.32s-6.1-1.8-6.5-1.8S76.75,89.7,76.28,89.73Z" transform="translate(-13.04)"/><path class="cls-22" d="M82.28,92.24l2.14,1s10.14-2.17,11.93-2.13L93.14,90S83.71,91.62,82.28,92.24Z" transform="translate(-13.04)"/><path class="cls-7" d="M81.78,86.79" transform="translate(-13.04)"/><path class="cls-23" d="M93.27,89.64a51.5,51.5,0,0,0-12,2.54q-2.81-1.28-5.69-2.35a96.41,96.41,0,0,1,11.1-2.18C88.87,88.18,91.07,88.87,93.27,89.64Z" transform="translate(-13.04)"/><path class="cls-21" d="M97.23,91.07H97.1A65.73,65.73,0,0,0,84,93.48c-.79-.4-1.58-.78-2.38-1.14a98.32,98.32,0,0,1,12.15-2.52C94.92,90.22,96.07,90.65,97.23,91.07Z" transform="translate(-13.04)"/><path class="cls-7" d="M119.38,153.3" transform="translate(-13.04)"/><path class="cls-7" d="M115.69,141h-.13l5.78-6.63,0,0c-17.62-9.16,10.62-53,25.71-36.77l0,0a9.91,9.91,0,0,0-4.43-.34,9.6,9.6,0,0,1,3.6.43h0a8.34,8.34,0,0,1,5.39,3.66h0l.17-3.12h0A1.64,1.64,0,0,1,151,97.1a1.71,1.71,0,0,1,1.25-2,1.66,1.66,0,0,1,2,1.28,1.72,1.72,0,0,1-1,2l-.16,3a10.75,10.75,0,0,1,5,1.43l1.06-1.18h0a1.77,1.77,0,0,1,0-1.44,1.64,1.64,0,0,1,2.23-.76,1.74,1.74,0,0,1,.74,2.29,1.64,1.64,0,0,1-2,.84l-.9,1A11.55,11.55,0,0,1,162.3,107l2.08-1a1.75,1.75,0,0,1,.59-1.32,1.64,1.64,0,0,1,2.34.21,1.75,1.75,0,0,1-.2,2.41,1.62,1.62,0,0,1-2.18,0l-2,.92a11.35,11.35,0,0,1,.89,3.24l3.66,0a1.63,1.63,0,0,1,3.1.18,1.69,1.69,0,0,1-1.11,2.12,1.64,1.64,0,0,1-2-.94l-3.57,0v.12a11.75,11.75,0,0,1-.85,4.42l2.22,1.7a1.56,1.56,0,0,1,1.41-.13,1.73,1.73,0,0,1,1,2.2,1.64,1.64,0,0,1-2.13,1,1.71,1.71,0,0,1-1-2l-2-1.55a11.24,11.24,0,0,1-3.87,4.17l1,1.67a1.57,1.57,0,0,1,1.36.39,1.72,1.72,0,0,1,.16,2.4,1.63,1.63,0,0,1-2.34.17,1.77,1.77,0,0,1-.29-2.24l-1.09-1.74a10.83,10.83,0,0,1-4.78,1.1c-.43,0-.85,0-1.27-.07l-.63,3.39a1.66,1.66,0,1,1-1.3-.24l.63-3.39-.12,0a33.6,33.6,0,0,1-9.72,11c-3.61,2.54-7.53,3.84-10.91,3.57a1.69,1.69,0,0,0,.27.11,10.93,10.93,0,0,1-4.29-1.38c-1.13,1.74-2.51,3.85-4.41,6.52,0,0,0,.05,0,.08a4.58,4.58,0,0,0,0-1.75.06.06,0,0,0,0-.05" transform="translate(-13.04)"/><path class="cls-7" d="M108.65,144.06" transform="translate(-13.04)"/><path class="cls-20" d="M77.48,95.85S97.81,88,116.13,91.46C116.13,91.46,92,88.49,77.48,95.85Z" transform="translate(-13.04)"/><circle class="cls-24" cx="83.66" cy="83.66" r="82.66"/><circle class="cls-25" cx="97.55" cy="76.67" r="0.42"/><path class="cls-26" d="M104.29,38.29c-19-1.23-20.38-15.61-20.38-15.61a4,4,0,0,1,1.75.39l.06,0a20.45,20.45,0,0,1,5.09,3.62s0,0,0,0A24.45,24.45,0,0,1,94,30.2C96.3,33.91,104.29,38.29,104.29,38.29Z" transform="translate(-13.04)"/><path class="cls-26" d="M113.49,51.71c-.09,3-.24,6.53-.46,10.53Z" transform="translate(-13.04)"/><path class="cls-26" d="M66.89,37.52c-.25.34-.59.77-1,1.26l-.72.94-3,3.87c.07-.1.15-.22.25-.34s.13-.19.21-.29c.34-.47.78-1,1.28-1.71.11-.14.23-.29.34-.45.71-.92,1.54-2,2.45-3.11A2.09,2.09,0,0,1,66.89,37.52Z" transform="translate(-13.04)"/><path class="cls-26" d="M70.05,48.89c-3.65-1.59-3.74-1.63-5-2.24l.41-.35A37.17,37.17,0,0,0,70.05,48.89Z" transform="translate(-13.04)"/><path class="cls-26" d="M85.23,56.86a.21.21,0,0,0,0,.06.63.63,0,0,1-.15-.08Z" transform="translate(-13.04)"/><path class="cls-16" d="M129.91,76.52c.33.86-9-.11-16.38-1.85l-.08,0c-1.31-.31-2.56-.65-3.68-1h0l-.56-.18a16.64,16.64,0,0,1-3.12-1.33h0c-2-.84-4.25-1.82-6.55-2.88l-1-.49-1.2-.58-.62-.3c-3.54-1.71-7.21-3.56-10.78-5.37l-.35-.18-.39-.2-.61-.3L78.8,59l-.19-.09-3.56-1.73a46.27,46.27,0,0,0-6-2,.9.9,0,0,1-.22-.06c-2.75-.78-6.12-1.7-9.53-2.64-7.65-2.08-15.54-4.25-17.35-5.14L42.36,46s12.4-2.1,19.36-1.69c-4.82-.19-16.32,2.08-16.32,2.08,9.29,2.48,19.06,3.69,24.65,2.54h0c2.9,1.25,7.11,3,12.15,4.83l.18.07A7.29,7.29,0,0,0,82.84,56l.62.16.31.11a5.54,5.54,0,0,1,.87.37l.1,0c.1,0,.2.1.3.15a.63.63,0,0,0,.15.08.21.21,0,0,1,0-.06,45.4,45.4,0,0,1,5.71.54c.58.08,1.14.18,1.72.29,0,0,0,0,0,0,1.77.32,3.51.7,5.27,1.11l.14,0c3.19.77,6.37,1.63,9.58,2.36l.63.14c1.57.35,3.14.66,4.73.9-.5.1-1,.19-1.54.26-.82.11-1.66.19-2.53.24a43.43,43.43,0,0,1-4.43,0h-.06c-1.26,0-2.53-.14-3.79-.27-.64-.06-1.28-.14-1.92-.22a64.6,64.6,0,0,1-8.6-1.68c-.61-.16-1.19-.33-1.74-.5l-.93-.3a35.86,35.86,0,0,0,3,2.44c1.08.79,2.24,1.56,3.45,2.29S96.41,66,97.7,66.66c1.74.9,3.56,1.75,5.4,2.53l1.07.45a87.72,87.72,0,0,0,13.07,4.2l2,.44a33.93,33.93,0,0,0,10.47.79Z" transform="translate(-13.04)"/><path class="cls-15" d="M104.29,38.29c-19-1.23-20.38-15.61-20.38-15.61a4,4,0,0,1,1.75.39l.06,0a20.45,20.45,0,0,1,5.09,3.62s0,0,0,0A24.45,24.45,0,0,1,94,30.2C96.3,33.91,104.29,38.29,104.29,38.29Z" transform="translate(-13.04)"/><path class="cls-27" d="M113.49,51.71,113,62.24a156.8,156.8,0,0,1-18.74-4.5c3.85-.93,7.22-4.5,8.42-7.92A91.53,91.53,0,0,0,113.49,51.71Z" transform="translate(-13.04)"/><path class="cls-27" d="M82.13,50.22h0a11.24,11.24,0,0,0,.23,2.8,6.35,6.35,0,0,0,0,.76l-.18-.07c-5-1.84-9.25-3.58-12.15-4.83h0l0,0a9.22,9.22,0,0,1-1.14-.5h0c-.5-.26-1-.57-1.53-.91l-.24-.15c-1.22-.81-2.44-1.72-3.51-2.32l-.06,0a4.71,4.71,0,0,0-1.78-.67l.24-.33.08-.11.08-.11.1-.13,3-3.87.72-.94c.37-.49.71-.92,1-1.26l.06-.07.24-.31.27-.35A154.07,154.07,0,0,0,85,44.55,7.63,7.63,0,0,0,82.13,50.22Z" transform="translate(-13.04)"/><path class="cls-8" d="M102.86,49.45c-1.53,4.6-6.56,9.51-11.93,8,4.76-3.32,8-9.36,8.81-14.08-3.27,1.1-5.88,1.72-8.53,3.26-.09.09-.27.25-.17.34-5.43,3.49-3.26,7.08-5.81,9.93A19.24,19.24,0,0,0,82.84,56c-3.06-8.37,3-14,9.25-14.25C98.88,40.81,107.66,39.85,102.86,49.45Z" transform="translate(-13.04)"/><path class="cls-28" d="M99.74,43.33a23.38,23.38,0,0,1-8.81,14.08l-5.7-.55c2.54-2.84.38-6.44,5.81-9.93-.1-.09.08-.25.17-.34C93.86,45.05,96.47,44.43,99.74,43.33Z" transform="translate(-13.04)"/><path class="cls-15" d="M129.73,75.07a33.93,33.93,0,0,1-10.47-.79l-2-.44a87.72,87.72,0,0,1-13.07-4.2l-1.07-.45c-1.84-.78-3.66-1.63-5.4-2.53C96.41,66,95.15,65.28,94,64.54S91.58,63,90.5,62.25a35.86,35.86,0,0,1-3-2.44l.93.3c.55.17,1.13.34,1.74.5a64.6,64.6,0,0,0,8.6,1.68c.64.08,1.28.16,1.92.22,1.26.13,2.53.22,3.79.27h.06c1.51,0,3,0,4.43,0,.87-.05,1.71-.13,2.53-.24.53-.07,1.05-.15,1.55-.25a53.9,53.9,0,0,1,5.63,3.11l.62.4c.66.43,1.31.88,1.95,1.37q.69.5,1.38,1.05c.68.55,1.35,1.13,2,1.76l.24.21C126.43,71.56,128,73.17,129.73,75.07Z" transform="translate(-13.04)"/><path class="cls-26" d="M129.73,75.07a50.26,50.26,0,0,0-4.83-4.92l-.24-.21a53.14,53.14,0,0,0-6-4.58l.62.4c.62.42,1.28.88,1.95,1.37q.69.5,1.38,1.05A47.44,47.44,0,0,1,129.73,75.07Z" transform="translate(-13.04)"/><path class="cls-15" d="M70.05,48.89C64.46,50,54.69,48.83,45.4,46.35c0,0,11.5-2.27,16.32-2.08,1.53,0,1.19.48,3.75,2C65.33,46.42,66.41,47.3,70.05,48.89Z" transform="translate(-13.04)"/></svg>