<svg id="Layer_1" data-name="Layer 1" xmlns="http://www.w3.org/2000/svg" viewBox="0 0 142.76 141.9"><defs><style>.cls-1{fill:#7178b8;stroke:#3c3c3b;stroke-miterlimit:10;stroke-width:2px;}</style></defs><path class="cls-1" d="M148.6,93.7a6.44,6.44,0,0,1-7.8-3.7l-13.8.2v.5a46.6,46.6,0,0,1-3.3,17.2l8.6,6.6a6.23,6.23,0,0,1,5.5-.5,6.82,6.82,0,0,1,3.8,8.6,6.41,6.41,0,0,1-8.3,3.9,6.66,6.66,0,0,1-4.1-7.7l-7.9-6A43.56,43.56,0,0,1,106.2,129l4.1,6.5a6.12,6.12,0,0,1,5.3,1.5,6.62,6.62,0,0,1,.6,9.3,6.3,6.3,0,0,1-9.1.7,6.73,6.73,0,0,1-1.1-8.7l-4.2-6.8a41.68,41.68,0,0,1-18.6,4.3,39.08,39.08,0,0,1-4.9-.3l-2.5,13.2a6.69,6.69,0,0,1-3,12.1,6.43,6.43,0,0,1-7-6,6.68,6.68,0,0,1,5-7.1l2.5-13.2c-.2,0-.3-.1-.5-.1a41.94,41.94,0,0,1-16.2-8.1l-8.3,9.2a6.7,6.7,0,0,1-.1,5.7,6.36,6.36,0,0,1-8.6,3,1.38,1.38,0,0,1-.4-.3.22.22,0,0,1-.2-.2,6.82,6.82,0,0,1-2.3-8.5,6.42,6.42,0,0,1,7.9-3.3l8.1-9.1A44.89,44.89,0,0,1,41.2,103l-15.9,3.8a6.6,6.6,0,0,1-3.2,4.6,6.37,6.37,0,0,1-8.8-2.5,6.73,6.73,0,0,1,2.5-9,6.2,6.2,0,0,1,8.3,1.8L40,97.9a43.15,43.15,0,0,1-.6-7.3,51.45,51.45,0,0,1,1-9.7L35,79.3a6.45,6.45,0,0,1-5,2.5,6.7,6.7,0,0,1,0-13.4,6.32,6.32,0,0,1,6.3,5.8l5.5,1.6A45,45,0,0,1,53.2,57.7l-4.3-6.1a6.65,6.65,0,0,1-5.4-1.2A6.8,6.8,0,0,1,42.2,41a6.43,6.43,0,0,1,9.1-1.2,6.79,6.79,0,0,1,1.6,8.6l4.2,5.9A46.32,46.32,0,0,1,67,48.6h0a42.62,42.62,0,0,1,12.3-3h.1l.7-12.2h0A6.43,6.43,0,0,1,76.7,29a6.63,6.63,0,0,1,4.9-7.9,6.41,6.41,0,0,1,7.7,5,6.88,6.88,0,0,1-4.1,7.8l-.6,11.6a41,41,0,0,1,19.6,5.6l4.1-4.6h0a6.85,6.85,0,0,1,.2-5.6,6.44,6.44,0,0,1,8.7-3,6.78,6.78,0,0,1,2.9,8.9,6.42,6.42,0,0,1-7.9,3.3L108.7,54a43.94,43.94,0,0,1,12.1,13.6l8.1-3.7a6.77,6.77,0,0,1,2.3-5.1,6.4,6.4,0,0,1,9.1.8,6.85,6.85,0,0,1-.8,9.4,6.41,6.41,0,0,1-8.5-.2l-7.9,3.6A44.43,44.43,0,0,1,126.6,85l14.3-.1a6.37,6.37,0,0,1,12.1.7A6.59,6.59,0,0,1,148.6,93.7Z" transform="translate(-11.5 -19.94)"/></svg>