<?xml version="1.0" encoding="utf-8"?>
<!-- Generator: Adobe Illustrator 24.1.0, SVG Export Plug-In . SVG Version: 6.00 Build 0)  -->
<svg version="1.1" id="Layer_1" xmlns="http://www.w3.org/2000/svg" xmlns:xlink="http://www.w3.org/1999/xlink" x="0px" y="0px"
	 viewBox="0 0 193.3 167.3" style="enable-background:new 0 0 193.3 167.3;" xml:space="preserve">
<style type="text/css">
	.st0{fill:#B6B8C8;}
	.st1{fill:#F2958E;stroke:#3C3C3B;stroke-width:0.75;stroke-miterlimit:10;}
	.st2{fill:#5A595E;stroke:#3C3C3B;stroke-width:0.75;stroke-miterlimit:10;}
	.st3{opacity:0.39;fill:#B8B1C4;stroke:#3C3C3B;stroke-width:0.75;stroke-miterlimit:10;}
	.st4{fill:#807E8C;stroke:#3C3C3B;stroke-width:0.75;stroke-miterlimit:10;}
	.st5{fill:#B3ACD0;stroke:#3C3C3B;stroke-width:0.75;stroke-miterlimit:10;}
	.st6{fill:none;stroke:#3C3C3B;stroke-width:0.75;stroke-miterlimit:10;}
	.st7{fill:#733646;stroke:#3C3C3B;stroke-width:0.75;stroke-miterlimit:10;}
	.st8{fill:#DC9598;stroke:#3C3C3B;stroke-width:0.75;stroke-miterlimit:10;}
	.st9{fill:#FCF9F7;stroke:#3C3C3B;stroke-width:0.75;stroke-miterlimit:10;}
	.st10{fill:#A6626F;stroke:#3C3C3B;stroke-width:0.75;stroke-miterlimit:10;}
	.st11{fill:#A47E3E;stroke:#3C3C3B;stroke-width:0.75;stroke-miterlimit:10;}
	.st12{stroke:#3C3C3B;stroke-width:0.75;stroke-miterlimit:10;}
	.st13{fill:#D4B489;stroke:#3C3C3B;stroke-width:0.75;stroke-miterlimit:10;}
	.st14{fill:#A47E3E;stroke:#3C3C3B;stroke-width:0.5;stroke-miterlimit:10;}
	.st15{fill:#D4B489;stroke:#3C3C3B;stroke-width:0.5;stroke-miterlimit:10;}
	.st16{fill:#A47E3E;stroke:#3C3C3B;stroke-miterlimit:10;}
	.st17{fill:#9C6E6A;stroke:#3C3C3B;stroke-width:0.25;stroke-miterlimit:10;}
	.st18{fill:#6F6451;stroke:#3C3C3B;stroke-width:0.5;stroke-miterlimit:10;}
	.st19{fill:#6F6451;stroke:#3C3C3B;stroke-width:0.25;stroke-miterlimit:10;}
	.st20{fill:#FDFDFD;stroke:#F6F6F6;stroke-width:0.15;stroke-miterlimit:10;}
	.st21{fill:#6B6877;}
	.st22{fill:none;}
	.st23{fill:none;stroke:#000000;stroke-width:2;stroke-miterlimit:10;}
	.st24{fill:#EDEDED;}
	.st25{fill:none;stroke:#3C3C3B;stroke-width:0.5;stroke-miterlimit:10;}
	.st26{fill:#B3ACD0;stroke:#3C3C3B;stroke-width:0.5;stroke-miterlimit:10;}
	.st27{fill:#733646;stroke:#3C3C3B;stroke-width:0.5;stroke-miterlimit:10;}
	.st28{fill:#DC9598;stroke:#3C3C3B;stroke-width:0.5;stroke-miterlimit:10;}
</style>
<path class="st0" d="M180.2,83.7c0,45.7-37,82.7-82.6,82.7c-0.8,0-1.6,0-2.5,0c4,0,8-0.3,11.9-0.9c0.1,0,0.1,0,0.2,0
	c0,0,0.1,0,0.1,0c0,0,0,0,0,0c2.2-0.2,4.4-0.5,6.6-1c2.6-3.2,5-7.5,5.5-11h0c5.9-3.4,2.4-5.2,2.4-5.2c1.3-1.6,0.6-2.4-0.4-2.8
	c-0.3-0.1-0.6-0.2-0.8-0.2c-0.2,0-0.5-0.1-0.6-0.1c0.4-0.7,0.7-1.3,0.8-1.8c0.1-0.5,0.1-0.9,0-1.2c0,0.1,0.1,0.1,0.1,0.2
	c0,0,0,0,0,0c0.1,0.4,0.1,1,0,1.8c0,0,0,0,0-0.1c1.9-2.7,3.3-4.8,4.4-6.5c1.3,0.8,2.8,1.2,4.3,1.4c-0.1,0-0.2-0.1-0.3-0.1
	c3.4,0.3,7.3-1,10.9-3.6c3.6-2.4,7.3-6.6,9.7-11c0,0,0.1,0,0.1,0l-0.6,3.4c-0.8,0.2-1.4,1-1.3,1.8c0.1,0.9,0.9,1.6,1.8,1.5
	c0.9-0.1,1.6-0.9,1.5-1.9c0-0.5-0.3-1-0.7-1.2l0.6-3.4c0.4,0,0.8,0.1,1.3,0.1c1.7,0,3.3-0.4,4.8-1.1l1.1,1.7
	c-0.4,0.7-0.3,1.7,0.3,2.2c0.7,0.6,1.7,0.5,2.3-0.2c0.6-0.7,0.5-1.8-0.2-2.4c-0.4-0.3-0.9-0.5-1.4-0.4l-1-1.7c1.6-1,3-2.5,3.9-4.2
	l2,1.5c-0.2,0.8,0.3,1.7,1,2c0.9,0.3,1.8-0.1,2.1-1c0.3-0.9-0.1-1.9-1-2.2c-0.5-0.2-1-0.1-1.4,0.1l-2.2-1.7c0.5-1.4,0.8-2.9,0.8-4.4
	v-0.1l3.6,0c0.3,0.8,1.2,1.2,2,0.9c0.9-0.3,1.4-1.2,1.1-2.1c-0.3-0.9-1.2-1.4-2.1-1.2c-0.5,0.2-0.9,0.5-1,1l-3.7,0
	c-0.1-1.1-0.4-2.2-0.9-3.2l2-0.9c0.6,0.6,1.5,0.6,2.2,0c0.7-0.6,0.8-1.7,0.2-2.4c-0.6-0.7-1.6-0.8-2.3-0.2c-0.4,0.3-0.6,0.8-0.6,1.3
	l-2.1,1c-0.8-1.4-1.9-2.6-3.1-3.5l0.9-1c0.8,0.3,1.6-0.1,2-0.8c0.4-0.8,0.1-1.9-0.7-2.3c-0.8-0.4-1.8-0.1-2.2,0.8
	c-0.2,0.5-0.2,1,0,1.4v0l-1.1,1.2c-1.5-0.9-3.2-1.4-5-1.4l0.2-3c0.8-0.3,1.2-1.1,1-2c-0.2-0.9-1.1-1.5-2-1.3c-0.9,0.2-1.5,1.1-1.2,2
	c0.1,0.5,0.4,0.9,0.9,1.1v0l-0.2,3.1h0c-1.2-1.8-3-3.2-5.4-3.7c0,0,0,0,0,0c-1.2-0.4-2.4-0.5-3.6-0.4c1.5-0.2,3-0.1,4.4,0.3
	c0,0,0,0,0,0c-15.1-16.3-43.3,27.6-25.7,36.8l0,0l-5.8,6.6c0,0,0.1,0,0.1,0c0,0,0,0,0,0h-0.1c-1.5,0-2.7,0.1-3.6,0.3l0,0.4
	c-1.6,0.2-2.9,1-3.4,2.3c0,0,0,0,0,0c1,2.6,1.7,6.1,1.2,10.7c0,0.2,0,0.3-0.1,0.5c-0.3,2.9-1.1,6.3-2.5,10.1c0.2-0.5,0.3-1,0.5-1.4
	c0.1-0.4,0.2-0.8,0.4-1.2c0.1-0.4,0.2-0.8,0.3-1.2c0-0.1,0-0.2,0.1-0.2c0.1-0.4,0.2-0.8,0.3-1.2c0-0.1,0-0.2,0.1-0.3
	c0.1-0.4,0.1-0.7,0.2-1.1c0.1-0.4,0.1-0.7,0.2-1c0.1-0.4,0.1-0.8,0.2-1.1c0-0.3,0.1-0.5,0.1-0.8c0-0.1,0-0.2,0-0.3
	c0-0.2,0-0.3,0-0.5c0.5-4.1,0.1-7.4-1.1-10.4c-0.8-1.9-1.8-3.6-3.3-5.2c0,0,0.1,0,0.1,0l0.3-0.1c-3.2-4.7-10.4-10.7-11.9-12.1l3-9.1
	c-0.1,0-0.2,0-0.3,0l0.3-0.8c-9.6,0.9-13.8-0.1-14.2-1.8v0c0.6-2.2,5.6-5.2,12.4-7.5c-0.2-0.2-0.5-0.4-0.8-0.5
	c0.2-0.1,0.5-0.2,0.8-0.3c3.5-1.3,6.5-2,6.5-2c-4.9-4.7-10.7-8.6-16.9-11.7c3.4-1,7.7-2,12.5-2.7c0,0,0.1,0,0.1,0h0.1
	c6.5,2.4,13,5,19.5,5.2c0,0-0.1,0-0.1,0c0.1,0,0.1,0,0.1,0s0,0,0,0c2.9-0.1,7.4,1.9,10.2,0.7c0.9-0.3,1.5-1,1.8-1.7l0.1-0.1
	c0,0,0,0,0-0.1c0,0,0,0,0,0c0.2-0.7-0.1-1.5-1-2.2c0,0,0,0,0,0c-0.5-1-1.1-1.8-1.5-1.4c-1.4-1.2-3.1-2.8-4.7-5.2
	c-2-3.4-4.8-8-6.8-11.3c-0.1,0-0.3-0.1-0.5-0.1c-0.2-0.1-0.5-0.1-0.7-0.2c7.4,1.7,16.7,2.7,16.4,1.8l-0.2-1.4
	c-2.3-2.8-4.8-5.1-7.1-6.9c-0.5-0.4-0.9-0.7-1.4-1c-0.6-0.5-1.3-0.9-1.9-1.4c-0.2-0.1-0.4-0.3-0.6-0.4c-1.7-1.1-3.6-2.1-5.6-3.1
	c-0.5,0.1-1,0.2-1.6,0.2c0.5-0.1,1-0.2,1.5-0.3c0.2-4,0.4-7.5,0.5-10.5c-0.3-19.1,1.3-16.8-3.2-22.6c-6.2-0.9-15.4-0.7-17.3-2.3
	c-4.4-2.9-7-3.9-8.4-4.2c0.3,0.1,0.7,0.2,1.1,0.5c-0.7-0.3-1.3-0.4-1.8-0.4c0.1-0.1,0.2-0.1,0.4-0.1c-1.2-0.2-1.5,0.1-1.5,0.1
	c-4,0.9-10.6,8.2-15.3,14.1c0,0-0.1,0.2-0.3,0.3c-0.1,0.1-0.2,0.2-0.2,0.3c0,0,0,0-0.1,0.1c0,0.1-0.1,0.1-0.1,0.2
	c-0.9,1.1-1.7,2.2-2.4,3.1c-0.1,0.2-0.2,0.3-0.3,0.5c-0.5,0.7-0.9,1.2-1.3,1.7c-0.1,0.1-0.1,0.2-0.2,0.3c-0.1,0.1-0.2,0.2-0.2,0.3
	c0,0-0.1,0.1-0.1,0.1c0,0-0.1,0.1-0.1,0.1c0,0.1-0.1,0.1-0.1,0.1c-0.1,0.1-0.2,0.2-0.2,0.3c-7-0.4-19.4,1.7-19.4,1.7l-0.4,1.4
	c1.8,0.9,9.7,3.1,17.4,5.1c-1.6,1.9-3.2,3.9-4.7,6c-7,8.9-16.4,24.7-16.5,24.8c-3.4-0.5-6.6-0.7-9.8-0.7c-0.1,0-0.2,0-0.2-0.1
	c-0.8-0.2-1.6-0.2-2.2,0.1c1,0,2.1,0.1,3.2,0.2c0.5,0.2,1,0.5,1.5,0.7c-0.6,0-1.2-0.1-1.8-0.1c0.1,0,0.2,0.1,0.3,0.1
	c0.3,0.1,0.5,0.2,0.8,0.4c-1-0.4-2.2-0.7-3.4-1c0.1,0.4,0.2,0.8,0.4,1.2c0.1,0.3,0.2,0.7,0.3,1c1.4,4.8,2,8.8,2.2,12.1
	c0,0.8,0,1.6,0,2.3c0,0.8-0.1,1.6-0.2,2.3c0,0.5-0.1,0.9-0.2,1.3c0,0,0,0,0,0c0,0.3-0.1,0.5-0.2,0.8v0c0,0.2-0.1,0.4-0.2,0.7
	c-0.1,0.2-0.1,0.4-0.2,0.6c-0.1,0.2-0.1,0.4-0.2,0.6c-0.1,0.3-0.2,0.6-0.3,0.8c-0.1,0.3-0.2,0.5-0.4,0.8c-0.1,0.2-0.2,0.3-0.3,0.5
	c-0.1,0.2-0.2,0.3-0.3,0.5c-0.1,0.1-0.2,0.3-0.3,0.4c-0.6,0.8-1.3,1.6-2,2.2c-1,0.9-2,1.6-3,2.1c-0.2,0.1-0.3,0.2-0.4,0.2
	c2.1,6.3,5,12.2,8.6,17.6c-9.4-13.4-15-29.8-15-47.4C14.9,38,51.9,1,97.5,1C143.2,1,180.2,38,180.2,83.7z"/>
<path class="st1" d="M169.4,113.7c-0.8,0.2-1.7-0.2-2-0.9l-3.6,0v0.1c0,1.6-0.3,3.1-0.8,4.4l2.2,1.7c0.4-0.3,0.9-0.3,1.4-0.1
	c0.9,0.3,1.3,1.3,1,2.2c-0.3,0.9-1.3,1.3-2.1,1c-0.8-0.3-1.2-1.2-1-2l-2-1.5c-0.9,1.7-2.2,3.1-3.9,4.2l1,1.7c0.5-0.1,1,0,1.4,0.4
	c0.7,0.6,0.8,1.7,0.2,2.4c-0.6,0.7-1.6,0.8-2.3,0.2c-0.6-0.6-0.7-1.5-0.3-2.2l-1.1-1.7c-1.5,0.7-3.1,1.1-4.8,1.1
	c-0.4,0-0.8,0-1.3-0.1l-0.6,3.4c0.4,0.3,0.7,0.7,0.7,1.2c0.1,0.9-0.6,1.8-1.5,1.9c-0.9,0.1-1.7-0.6-1.8-1.5
	c-0.1-0.9,0.5-1.6,1.3-1.8l0.6-3.4c0,0-0.1,0-0.1,0c-1.5-0.4-3-1.1-4.2-2.1l-2.1,2.4c0.2,0.5,0.2,1,0,1.5c-0.4,0.8-1.4,1.2-2.2,0.8
	c0,0-0.1,0-0.1-0.1c0,0,0,0-0.1,0c-0.7-0.5-1-1.4-0.6-2.2c0.4-0.8,1.2-1.1,2-0.9l2.1-2.3c-1.4-1.4-2.4-3.1-3-5.1l-4.1,1
	c-0.1,0.5-0.4,0.9-0.8,1.2c-0.8,0.5-1.8,0.2-2.3-0.7c-0.4-0.8-0.2-1.9,0.6-2.3c0.7-0.4,1.7-0.2,2.1,0.5l4.1-1
	c-0.1-0.6-0.2-1.2-0.2-1.9c0-0.9,0.1-1.7,0.3-2.5l-1.4-0.4c-0.3,0.4-0.8,0.6-1.3,0.6c-0.9,0-1.7-0.8-1.7-1.7c0-0.9,0.7-1.7,1.7-1.7
	c0.8,0,1.5,0.6,1.6,1.5l1.4,0.4c0.6-1.8,1.6-3.4,2.9-4.6l-1.1-1.6c-0.5,0.1-1,0-1.4-0.3c-0.7-0.6-0.9-1.7-0.3-2.4
	c0.6-0.7,1.6-0.9,2.3-0.3c0.7,0.5,0.8,1.5,0.4,2.2l1.1,1.5c0.8-0.6,1.6-1.1,2.5-1.5h0c1-0.4,2.1-0.7,3.2-0.8h0l0.2-3.1v0
	c-0.4-0.2-0.8-0.6-0.9-1.1c-0.2-0.9,0.3-1.8,1.2-2c0.9-0.2,1.8,0.4,2,1.3c0.2,0.9-0.3,1.7-1,2l-0.2,3c1.8,0,3.5,0.6,5,1.4l1.1-1.2v0
	c-0.2-0.5-0.2-1,0-1.4c0.4-0.8,1.4-1.2,2.2-0.8c0.8,0.4,1.1,1.5,0.7,2.3c-0.4,0.8-1.3,1.1-2,0.8l-0.9,1c1.2,0.9,2.3,2.1,3.1,3.5
	l2.1-1c0-0.5,0.2-1,0.6-1.3c0.7-0.6,1.8-0.5,2.3,0.2c0.6,0.7,0.5,1.8-0.2,2.4c-0.6,0.5-1.6,0.5-2.2,0l-2,0.9c0.5,1,0.8,2.1,0.9,3.2
	l3.7,0c0.2-0.5,0.6-0.8,1-1c0.9-0.3,1.8,0.2,2.1,1.2C170.8,112.5,170.3,113.4,169.4,113.7z"/>
<g>
	<path class="st2" d="M147.1,97.6c-1.4-0.5-2.9-0.6-4.4-0.3c-13.6,1.8-28.5,28.1-19,38c-0.4-0.1-0.8-0.3-1.2-0.4l0,0c0,0,0,0-0.1,0
		c-0.3-0.1-0.7-0.3-1-0.5C103.8,125.2,132,81.3,147.1,97.6C147.1,97.6,147.1,97.6,147.1,97.6z"/>
	<path class="st3" d="M149,108.5c0,0.1,0,0.3,0,0.4c0,0.1,0,0.3,0,0.4v0c0,0.1,0,0.2,0,0.3c0,0,0,0.1,0,0.1v0
		c-0.5,3.5-1.7,7.2-3.5,10.7c-0.1,0.1-0.1,0.2-0.2,0.3c-0.1,0.2-0.2,0.3-0.2,0.5c-0.1,0.2-0.2,0.3-0.3,0.5c-0.1,0.1-0.2,0.3-0.2,0.4
		c-0.2,0.4-0.5,0.8-0.7,1.1c-0.8,1.2-1.6,2.4-2.5,3.5c-1.6,2-3.5,3.8-5.5,5.2c-1.1,0.8-2.3,1.5-3.6,2.1c-2.8,1.3-5.8,1.9-9,1.5
		c-0.1,0-0.3,0-0.4,0c-0.2-0.2-0.3-0.4-0.5-0.5c0,0-0.1-0.1-0.1-0.1c0,0,0,0,0,0c-8.4-10.6,6.9-36.7,20.4-37.4
		c1.2-0.1,2.4,0,3.6,0.4c1.1,1.3,1.8,2.8,2.2,4.4c0,0.1,0.1,0.2,0.1,0.3c0,0,0,0.1,0,0.1C149.1,104.4,149.2,106.4,149,108.5z"/>
	<path class="st2" d="M125.8,136.6c-0.2,0.3-0.3,0.6-0.5,0.8c-1.1,1.7-2.5,3.8-4.4,6.5c0,0,0,0,0,0.1c0.1-0.8,0.1-1.3,0-1.8
		c0,0,0,0,0,0c0,0,0-0.1-0.1-0.2c0,0,0-0.1,0-0.1c0,0,0,0,0,0s0,0,0,0c-0.4-0.7-1.1-0.8-2-0.8h0c-0.1,0-0.2,0-0.4,0
		c-0.6,0-1.3,0.1-1.9,0c-0.2,0-0.4,0-0.6-0.1c0,0,0,0,0,0h0c0,0,0,0,0,0c0,0,0,0-0.1,0l5.8-6.6l0,0l0.2-0.2c0,0,0.2,0.3,0.6,0.6
		c0,0,0,0,0,0c0.1,0,0.1,0.1,0.2,0.1l0,0c0.2,0.2,0.5,0.4,0.8,0.5c0,0,0.1,0,0.1,0.1c0,0,0,0,0,0C124,135.9,124.8,136.3,125.8,136.6
		z"/>
	<path class="st4" d="M129.3,138.7c0.1,0,0.2,0.1,0.3,0.1c-1.5-0.2-3-0.6-4.3-1.4c-1-0.5-1.8-1.2-2.5-2c0.2,0,0.3,0.1,0.5,0.1
		c3.1,0.5,6-0.1,8.9-1.6c1.2-0.6,2.3-1.3,3.5-2.1l0.1,0l4.4,3.3C136.6,137.7,132.7,139,129.3,138.7z"/>
	<path class="st5" d="M151.1,121.9c-0.3,0.7-0.7,1.5-1.1,2.2c-2.5,4.4-6.1,8.6-9.7,11l-4.4-3.3l-0.1,0c1-0.8,2-1.6,3-2.6
		c0.7-0.6,1.4-1.3,2-2.1c0.2-0.2,0.3-0.4,0.5-0.6c0.2-0.2,0.4-0.5,0.6-0.7c1-1.2,1.9-2.5,2.7-3.9c0.1-0.1,0.2-0.3,0.2-0.4
		c0.1-0.1,0.2-0.3,0.3-0.5c1.4-2.5,2.5-5.1,3.2-7.8c0-0.1,0.1-0.2,0.1-0.3c0.1-0.2,0.1-0.3,0.1-0.5c0-0.1,0-0.1,0.1-0.2
		c0.1-0.5,0.2-0.9,0.3-1.4c0.1-0.3,0.1-0.6,0.1-0.9c0-0.1,0-0.3,0-0.4v0c0,0,0-0.1,0-0.1c0-0.1,0-0.2,0-0.3v0c0-0.1,0-0.3,0-0.4
		c0-0.1,0-0.3,0-0.4l5,2.4c0,0,0,0,0,0C154.1,111.7,154.4,115.6,151.1,121.9z"/>
	<path class="st4" d="M154,110.1L154,110.1c0,0.5,0,0.8,0,0.8l-5-2.4c0-2,0-4-0.4-5.9c0,0,0-0.1,0-0.1c0-0.1,0-0.2-0.1-0.3
		c-0.4-1.8-1.1-3.4-2.2-4.4c0,0,0,0,0,0c2.4,0.5,4.2,1.9,5.4,3.7c0.6,0.9,1.1,2,1.5,3.1c0.1,0.4,0.2,0.8,0.3,1.2
		c0.1,0.5,0.2,1,0.3,1.5C153.9,108.1,154,109.1,154,110.1z"/>
</g>
<g>
	<path class="st6" d="M68.8,83.6c-0.1,0.3-0.3,0.5-0.4,0.8c-0.4,0.9-0.7,1.7-1,2.6c-0.1,0-0.1,0-0.2,0c0.1-0.5,0.2-0.9,0.4-1.4
		c0,0,0-0.1,0-0.1C67.9,84.8,68.3,84.1,68.8,83.6z"/>
	<path class="st6" d="M74.1,87.7c-0.1,0-0.1,0.1-0.2,0.1c-0.2,0.1-0.3,0.2-0.4,0.3C73.7,87.9,73.9,87.8,74.1,87.7z"/>
	<path class="st6" d="M81.4,86.9L81.4,86.9C81.4,86.9,81.4,86.9,81.4,86.9C81.4,86.9,81.4,86.9,81.4,86.9z"/>
	<path class="st6" d="M117.5,80.8c-1.9-3.1-2.3-3.7-3.7-5.8c-0.2-0.1-0.5-0.1-0.7-0.2c0,0,0,0-0.1,0c-0.6-0.2-1.2-0.4-1.9-0.6
		c-0.4-0.1-0.9-0.3-1.3-0.4c-0.2-0.1-0.5-0.1-0.7-0.2c0.1,0.1,0.1,0.1,0.2,0.2c0,0,0,0,0,0c0.3,0.3,0.6,0.6,0.8,1
		c0.2,0.3,0.4,0.5,0.6,0.8c0,0,0.1,0.1,0.1,0.1c0,0,0,0,0,0c0.1,0.1,0.2,0.3,0.3,0.4c0.6,0.9,1,1.9,1.4,2.7c0,0,0,0,0,0
		c0,0,0,0-0.1,0c0,0,0,0,0,0c0,0,0,0,0,0c0,0,0,0,0,0h0c-0.3,0.1-1,0.1-1.8,0c-0.3,0-0.7-0.1-1-0.2c-0.2,0-0.3,0-0.4-0.1
		c0,0,0,0-0.1,0c-0.2,0-0.4-0.1-0.6-0.1c-0.4-0.1-0.8-0.2-1.1-0.3c-0.4-0.1-0.8-0.3-1.1-0.5c-0.3-0.1-0.6-0.3-0.8-0.5
		c-0.2-0.1-0.4-0.3-0.6-0.5c-0.1-0.1-0.2-0.2-0.3-0.3c0,0,0,0,0,0c-0.2-0.2-0.3-0.3-0.4-0.5c0,0-0.1,0-0.1,0
		c-1.8,0.7-2.9,0.7-2.9,0.7c10.8,12.4,20.1,9.9,20.1,9.9C120.5,85.7,119.5,84,117.5,80.8z M127.3,93C127.3,93,127.3,93,127.3,93
		c-0.4-0.4-1-0.9-1.6-1.4c-0.3,0.3-0.5,0.5-0.8,0.7c-0.1,0.1-0.3,0.2-0.4,0.3c-0.2,0.1-0.3,0.2-0.5,0.3c-0.7,0.5-0.5,0.7,0.1,4
		l2.2,0.2c0.9-0.3,1.5-1,1.8-1.7c0-0.1,0-0.1,0.1-0.2c0,0,0,0,0,0C128.5,94.5,128.2,93.7,127.3,93z"/>
	<path class="st7" d="M126.5,96.9c-2.8,1.2-7.3-0.8-10.2-0.7c0-0.1-0.6-2.2-5.3-4.1c-2-0.8-3.7-1.2-4.9-1.5
		c-1.7-0.3-2.7-0.2-2.7-0.2c0,0,0,0,0,0c-0.5-0.3-1-0.6-1.5-0.8c-0.1-0.1-0.2-0.1-0.3-0.2c-0.1-0.1-0.2-0.1-0.3-0.2
		c-0.1,0-0.2-0.1-0.2-0.1c-0.1-0.1-0.2-0.1-0.3-0.2c-0.5-0.3-1-0.6-1.6-1c-0.2-0.1-0.5-0.3-0.7-0.4c-0.1-0.1-0.2-0.2-0.4-0.2h0
		c-0.2-0.1-0.3-0.2-0.4-0.3h0c-1.3-0.8-2.6-1.7-3.9-2.5l0,0c-0.1-0.1-0.3-0.2-0.4-0.3c0,0,0,0,0,0c-1.8-1.1-3.6-2.1-5.5-2.8
		c0,0-0.1,0-0.1,0c-2.8-1.2-5.8-1.9-8.8-1.7c-3.2,0.2-6.6,1.3-10,4c0.1-0.4,0.2-0.8,0.4-1.2c0.7-1.6,2.3-2.8,4-3.7c0,0,0,0,0,0
		c2.1-1.1,4.5-1.7,6.1-2c0,0,0,0,0,0c0.7-0.1,1.2-0.1,1.4-0.1c0,0,7.2,0.5,11.3-0.2c0,0,0,0,0.1,0c1.2-0.2,2.2-0.5,2.6-1
		c0.5-0.6,0.2-1.4-1.5-2.5c-0.4-0.2-0.7-0.5-1.1-0.8c-3-2.3-5.3-5.6-6.8-9h0c-0.1-0.1-0.1-0.3-0.2-0.4c3.2,1.5,7.2,3.6,11.1,5.5
		c0.2,0.1,0.4,0.2,0.6,0.3c0.4,0.2,0.8,0.4,1.2,0.6c0.3,0.2,0.7,0.3,1,0.5c2.4,1.1,4.7,2.1,6.5,2.8c-1.5-0.1-2.8,0-2.8,0
		s-0.4,0.5-0.1,1.5c0,0,0,0,0,0.1c0.2,0.5,0.5,1.1,1.2,1.9c0,0-0.1,0-0.1,0c-1.8,0.7-2.9,0.7-2.9,0.7c10.8,12.2,20.1,9.7,20.1,9.7
		c1.7,2.4,3.4,3.9,4.7,5.1c-0.3,0.3-0.5,0.5-0.8,0.7c-0.1,0.1-0.3,0.2-0.4,0.3c-0.2,0.1-0.3,0.2-0.5,0.3c-0.7,0.5-0.5,0.7,0.1,3.9
		L126.5,96.9z"/>
	<path class="st8" d="M121,86.4c0,0-9.2,2.5-20.1-9.9c0,0,1.1-0.1,2.9-0.7c0,0,0.1,0,0.1,0c0.1,0.2,0.2,0.4,0.4,0.5c0,0,0,0,0,0
		c0.1,0.1,0.2,0.2,0.3,0.3c0.2,0.2,0.4,0.4,0.6,0.5c0.2,0.2,0.5,0.3,0.8,0.5c0.4,0.2,0.7,0.3,1.1,0.5c0.4,0.1,0.8,0.2,1.1,0.3
		c0.2,0,0.4,0.1,0.6,0.1c0,0,0.1,0,0.1,0c0.1,0,0.3,0.1,0.4,0.1c0.4,0.1,0.7,0.1,1,0.2c0.8,0.1,1.5,0.1,1.8,0h0c0,0,0,0,0.1,0
		c0,0,0,0,0,0c0,0,0,0,0.1,0c0,0,0,0,0,0c-0.4-0.8-0.9-1.8-1.4-2.7c-0.1-0.2-0.2-0.3-0.3-0.5c0,0,0-0.1-0.1-0.1
		c-0.2-0.3-0.4-0.5-0.6-0.8c-0.3-0.3-0.5-0.7-0.9-1c-0.1-0.1-0.1-0.1-0.2-0.2c0.2,0.1,0.5,0.1,0.7,0.2c0.5,0.1,0.9,0.3,1.3,0.4
		c0.6,0.2,1.3,0.4,1.9,0.6c0,0,0,0,0.1,0c0.2,0.1,0.5,0.1,0.7,0.2c0.2,0,0.3,0.1,0.5,0.1C116.3,78.4,119,83,121,86.4z"/>
	<path class="st1" d="M128.8,95.4l-0.1,0.1l-1.9,1.7l-2.5-0.2c-0.7-3.2-0.9-3.4-0.1-3.9c0.1-0.1,0.3-0.2,0.5-0.3
		c0.1-0.1,0.3-0.2,0.4-0.3c0.2-0.2,0.5-0.4,0.8-0.7c0.4-0.4,1.1,0.4,1.7,1.4C128.2,93.9,128.7,94.9,128.8,95.4
		C128.8,95.3,128.8,95.3,128.8,95.4C128.8,95.3,128.8,95.4,128.8,95.4z"/>
	<path class="st9" d="M112.6,78.8c-1.6,1-11.2-1.9-9.7-6.5c0,0,1.3-0.1,2.8,0C109.2,72.9,111.4,75.8,112.6,78.8z"/>
	<path class="st8" d="M116.6,96.4c-6.5-0.2-13-2.8-19.5-5.3c0,0,0,0,0,0c-1.2-0.4-2.3-0.9-3.5-1.3c-0.2-0.1-0.3-0.1-0.5-0.2
		c0,0,0,0,0,0c-2.2-0.8-4.4-1.5-6.6-2c-0.2-0.1-0.4-0.1-0.6-0.1c-1.4-0.3-2.8-0.6-4.2-0.7c0,0,0,0,0,0c0,0,0,0,0,0c0,0,0,0-0.1,0
		c-0.3,0-0.6-0.1-0.9-0.1c-0.6-0.1-1.1-0.1-1.6-0.1c-0.2,0-0.4,0-0.6,0c0,0,0,0,0,0c-0.1,0-0.3,0-0.4,0c-0.1,0-0.2,0-0.3,0
		c-0.2,0-0.3,0-0.5,0c-0.1,0-0.2,0-0.3,0.1c-0.1,0-0.1,0-0.2,0c-0.1,0-0.3,0.1-0.4,0.1c-0.1,0-0.2,0.1-0.4,0.1
		c-0.4,0.1-0.7,0.3-1,0.4c-0.1,0-0.2,0.1-0.3,0.2c-0.1,0.1-0.3,0.2-0.4,0.3c-0.1,0.1-0.3,0.2-0.4,0.4c0,0,0,0,0,0L67.7,87
		c0.1-1,0.4-1.9,1-2.7c2.3-3.1,7.8-4.7,10.4-5.1c0.9-0.2,1.4-0.2,1.3-0.1c1.6-0.6,4.4,0.3,7.5,1.8c0,0,0.1,0,0.1,0
		c1.7,0.8,3.5,1.9,5.3,2.9c0,0,0,0,0,0c0.2,0.1,0.3,0.2,0.5,0.3c1.4,0.9,2.8,1.8,4.1,2.6c0,0,0,0,0,0l0,0c0.2,0.1,0.3,0.2,0.4,0.3
		l0,0c0.1,0.1,0.3,0.2,0.4,0.2c0.2,0.2,0.5,0.3,0.7,0.5c0.6,0.4,1.1,0.7,1.6,1c0.1,0.1,0.2,0.1,0.3,0.2c0.1,0.1,0.2,0.1,0.2,0.1
		c0.1,0.1,0.2,0.1,0.3,0.2c0.1,0.1,0.2,0.1,0.3,0.2c0.7,0.4,1.2,0.7,1.5,0.9c0,0,0,0,0,0c0,0,0.9-0.1,2.7,0.2
		c1.2,0.2,2.9,0.7,4.9,1.5C116,94.1,116.6,96.3,116.6,96.4z"/>
	<path class="st6" d="M68.8,83.6c-0.1,0.3-0.3,0.5-0.4,0.8c-0.4,0.9-0.7,1.7-1,2.6c-0.1,0-0.1,0-0.2,0c0.1-0.5,0.2-0.9,0.4-1.4
		c0,0,0-0.1,0-0.1C67.9,84.8,68.3,84.1,68.8,83.6z"/>
	<path class="st6" d="M74.4,87.5c-0.1,0-0.1,0.1-0.2,0.1"/>
	<path class="st10" d="M94.6,75.3c-0.1,0.5-0.8,0.8-2.6,1c0,0,0,0-0.1,0c-2.1,0.2-5.7,0.2-11.3,0.2c-0.5,0-0.9,0-1.4,0.1
		c0,0,0,0,0,0c-2,0.2-4.1,0.8-6.1,2c0,0,0,0,0,0c-1.5,0.9-2.9,2.2-4,3.8c-0.6,0.9-1.1,1.9-1.5,3.1c0,0,0,0,0,0.1
		c-0.1,0.4-0.3,0.9-0.4,1.4c-10.8-3.1-21.2-4.1-29.1-4.4c5.7-10.2,9.1-15.1,16.1-24c1.5-2.1,3.1-4.1,4.7-6c0,0,0.1-0.1,0.1-0.1
		c3.9,1.1,6.9,2,9.4,2.8c0.1,0,0.2,0,0.2,0.1c3,1,5.3,1.8,7.6,2.8l0.1,0c0.3,0.1,0.5,0.2,0.8,0.3l0.2,0.1c0.3,0.1,0.6,0.3,0.9,0.4
		c0.1,0,0.1,0.1,0.2,0.1c1.9,0.9,3.9,1.9,6.3,3.2l0.4,0.2c0.1,0.2,0.1,0.3,0.2,0.4c1.9,4.2,4.7,7.1,6.8,9.2
		C93.7,73.6,94.8,74.7,94.6,75.3z"/>
	<path class="st6" d="M68.8,83.6c-0.1,0.3-0.3,0.5-0.4,0.8c-0.4,0.9-0.7,1.7-1,2.6c-0.1,0-0.1,0-0.2,0c0.1-0.5,0.2-0.9,0.4-1.4
		c0,0,0-0.1,0-0.1C67.9,84.8,68.3,84.1,68.8,83.6z"/>
	<path class="st11" d="M113.1,51.8c0,0-0.2,0-0.7-0.1c-0.1,0-0.3,0-0.4-0.1c-0.3,0-0.7-0.1-1.1-0.1c-0.2,0-0.4-0.1-0.7-0.1
		c-0.7-0.1-1.5-0.2-2.4-0.4c-0.5-0.1-0.9-0.2-1.5-0.3c-0.6-0.1-1.3-0.3-2-0.4c-0.6-0.1-1.3-0.3-1.9-0.4c0,0,0,0,0,0c0,0,0,0,0,0
		c0,0,0-0.1,0.1-0.1c0,0,0,0,0,0c0.4-0.8,0.7-1.5,0.9-2.2c0.1-0.4,0.2-0.8,0.3-1.1c0-0.2,0.1-0.3,0.1-0.5c0-0.1,0-0.3,0-0.4
		c0-0.3,0-0.6,0-0.8c-0.1-1.7-1.2-2.6-2.7-3c-0.1,0-0.2-0.1-0.3-0.1c-0.2-0.1-0.5-0.1-0.7-0.1c-0.1,0-0.2,0-0.3,0
		c-0.2,0-0.4,0-0.5,0c-0.6,0-1.2-0.1-1.8,0h-0.2c-0.2,0-0.5,0-0.7,0c-0.3,0-0.6,0-0.9,0.1c-0.2,0-0.5,0-0.7,0.1
		c-0.5,0-1.1,0.1-1.6,0.2c-0.5,0.1-1,0.1-1.6,0.2c0,0-0.1,0-0.1,0c-0.7,0.1-3.1,0.4-5.5,1.8c-0.1,0-0.2,0.1-0.2,0.2
		c-0.4,0.2-0.9,0.5-1.2,0.8c-5.7-2.1-11.9-4.8-17.6-7.8c4.8-5.9,11.4-13.2,15.3-14.1c0,0,0.3-0.3,1.5-0.1c-0.2,0-0.3,0-0.4,0.1
		c0,0,1.4,14.4,20.4,15.6c0,0-8-4.4-10.3-8.1c-0.7-1.1-1.9-2.3-3.1-3.4c0,0,0,0,0,0c-1.7-1.5-3.7-2.9-5.1-3.6c0,0,0,0-0.1,0
		c-0.4-0.2-0.8-0.4-1.1-0.5c1.5,0.3,4,1.4,8.4,4.2c1.9,1.6,11.1,1.4,17.3,2.3C114.4,35,112.8,32.7,113.1,51.8z"/>
	<circle class="st12" cx="110.5" cy="77.4" r="1.2"/>
</g>
<path class="st6" d="M193.3,87.3"/>
<polygon class="st6" points="85.9,62.5 85.7,62.8 75.1,57.1 85.5,62.3 "/>
<path class="st6" d="M85.2,56.9C85.2,56.9,85.2,56.9,85.2,56.9c-0.1,0-0.2,0-0.2,0L85.2,56.9z"/>
<path class="st6" d="M109.7,153.7c0,0.5-0.1,0.9-0.1,1.4c0,0.2,0,0.3,0,0.5c0,0.1,0,0.2,0,0.3c0,0.3-0.1,0.5-0.1,0.8
	c0,0.4-0.1,0.7-0.2,1.1c-0.1,0.3-0.1,0.7-0.2,1c-0.1,0.3-0.1,0.7-0.2,1.1c0,0.1,0,0.2-0.1,0.3c-0.1,0.4-0.2,0.8-0.3,1.2
	c0,0.1,0,0.2-0.1,0.2c-0.1,0.4-0.2,0.8-0.3,1.2c-0.1,0.4-0.2,0.8-0.4,1.2c-0.1,0.5-0.3,0.9-0.5,1.4h0v0c0,0-0.1,0-0.1,0
	c1.4-4.2,2-7.9,2.2-10.9c0-0.2,0-0.4,0-0.6v-0.1c0-0.1,0-0.1,0-0.2v-0.2c0-0.1,0-0.1,0-0.2c0.1-3.2-0.4-6.3-1-8.1l0.1-0.3
	c0,0,0,0,0,0C109.3,147,109.9,149.9,109.7,153.7z"/>
<path class="st6" d="M115.6,141.8l-0.2,0.2c-0.2-0.1-0.3-0.1-0.5-0.2C115.1,141.8,115.3,141.8,115.6,141.8z"/>
<path class="st13" d="M101.5,105.4c0,0-3,0.7-6.5,2c-5.5-3.5-12.2-7.3-19.3-10.9c-0.5-0.3-1-0.5-1.6-0.8c-4.2-2.1-8.5-4-12.6-5.7
	c-2.3-0.9-4.5-1.8-6.7-2.6c-1.6-0.6-3.1-1.1-4.7-1.6c-4.1-1.3-8-2.2-11.4-2.6c-0.2,0-0.4-0.1-0.5-0.1c0,0,0,0,0,0
	c0-0.1,0.1-0.2,0.2-0.3c0-0.1,0.1-0.2,0.1-0.2C49.7,83,62.8,85.1,75,89.6c0.2,0.1,0.4,0.1,0.5,0.2c1.9,0.7,3.8,1.5,5.7,2.4
	c0.1,0,0.2,0.1,0.4,0.2c0.8,0.4,1.6,0.7,2.4,1.1c0.2,0.1,0.4,0.2,0.6,0.3C90.8,96.9,96.5,100.7,101.5,105.4z"/>
<path class="st14" d="M109.4,153.1v0.5c0,0,0,0.1,0,0.2v0.1c0,0.2,0,0.4,0,0.6c0,0,0,0,0,0c0,0.1,0,0.1,0,0.2c0,0.2,0,0.4,0,0.6
	c0,0.3,0,0.7-0.1,1c-0.2,1.8-0.5,3.7-0.9,5.5c0,0,0,0,0,0c0,0.2-0.1,0.3-0.1,0.5c0,0,0,0,0,0c-0.1,0.3-0.2,0.6-0.2,0.9
	c-0.1,0.4-0.2,0.8-0.4,1.2c0,0.1-0.1,0.2-0.1,0.3l0,0c-0.1,0.2-0.1,0.5-0.2,0.7v0c0,0-0.1,0-0.1,0c-0.1,0-0.1,0-0.2,0
	c-2.9,0.3-10.9,0.6-16.5,0.6c-0.8,0-1.5,0-2.2,0c0,0,0,0,0,0c-1,0-2,0-2.6,0l0,0l0,0c0.1-0.1,0.1-0.1,0.2-0.2
	c0.1-0.1,0.2-0.2,0.3-0.3c2-2,4.3-4,6.6-6.1c3.4-3.1,6.6-6.5,8.8-10.1c0.1-0.2,0.1-0.5-0.1-0.7c0,0-16.3,3.7-27.2,14.2
	c-0.2,0.2-0.3,0.3-0.5,0.5l0,0l-0.2,0c0,0-0.1,0-0.2,0h0l-1.6-0.5c0,0,0,0,0,0c0,0,0.3-0.2,0.6-0.4c0.4-0.3,1-0.7,1.8-1.2
	c0.2-0.1,0.4-0.3,0.6-0.4c0.1-0.1,0.2-0.1,0.3-0.2c0.3-0.2,0.7-0.5,1.1-0.7c0.5-0.3,1.1-0.7,1.6-1.1c0.5-0.3,1.1-0.7,1.6-1.1
	c0,0,0.1-0.1,0.2-0.1c0.2-0.2,0.5-0.3,0.8-0.5c0.9-0.6,1.9-1.2,2.9-1.9c0.6-0.4,1.1-0.8,1.7-1.1c0.5-0.3,0.9-0.6,1.4-0.9
	c0.6-0.4,1.2-0.8,1.9-1.2c1.4-0.9,2.8-1.8,4.1-2.6c0.3-0.2,0.7-0.4,1-0.6c0.7-0.5,1.4-0.9,2.1-1.3c0.6-0.3,1.1-0.7,1.6-1
	c0.6-0.3,1.1-0.7,1.7-1c0.1,0,0.1-0.1,0.2-0.1c0.2-0.1,0.4-0.2,0.6-0.3c1-0.6,1.8-1.1,2.5-1.4c0.2-0.1,0.5-0.3,0.7-0.4
	c0.1,0,0.1-0.1,0.2-0.1c0.1,0,0.2-0.1,0.2-0.1c0.1,0,0.1-0.1,0.2-0.1c0.1-0.1,0.2-0.1,0.3-0.1c0.1,0,0.1,0,0.2,0c0,0,0.1,0,0.1,0
	l-0.1,0l-5.7-1c0,0,0,0,0,0l1-0.3c0.1,0,0.2,0,0.2-0.1c0.1,0,0.2-0.1,0.3-0.1c0.1,0,0.2-0.1,0.4-0.1c0.1,0,0.2-0.1,0.3-0.1l4.5-1.4
	c0,0,0,0,0,0c0,0,0,0,0,0l0.4-0.1c0,0,0,0,0,0s0,0,0,0c0,0,0,0,0,0l0,0h0c0.9,1.1,1.7,2.4,2.3,3.8c0,0.1,0.1,0.2,0.1,0.2
	c0.1,0.2,0.2,0.3,0.2,0.5C109,146.8,109.4,149.9,109.4,153.1z"/>
<path class="st6" d="M107.6,164.4c0,0.1-0.1,0.2-0.1,0.3c-0.1,0.2-0.1,0.5-0.2,0.7c0,0,0,0,0,0v0c0.1-0.2,0.2-0.5,0.2-0.7
	C107.5,164.6,107.6,164.5,107.6,164.4z"/>
<path class="st6" d="M109.6,155.1c0,0.2,0,0.3,0,0.5c-0.2,1.9-0.6,3.9-1.2,6.1c0,0,0,0,0,0c0,0.2-0.1,0.3-0.1,0.5
	c0.5-1.9,0.8-3.9,1-6c0-0.3,0.1-0.7,0.1-1c0-0.2,0-0.4,0-0.6v-0.2c0,0,0,0,0,0c0,0,0,0,0,0c0-0.2,0-0.4,0-0.6v-0.1
	c0-0.1,0-0.1,0-0.2v-0.5c0-3.2-0.4-6.4-1.6-9.1c-0.1-0.2-0.1-0.3-0.2-0.5c0-0.1-0.1-0.2-0.1-0.2c-0.2-0.4-0.4-0.8-0.6-1.1
	c-0.5-0.9-1.1-1.8-1.7-2.6h0c1.4,1.6,2.5,3.4,3.3,5.2C109.7,147.7,110.1,151,109.6,155.1z"/>
<path class="st15" d="M86.5,166c5.1-4.9,16.3-15.9,14.7-17.3c0,0-5.5,1.5-12.1,4.5v0c-5.2,2.2-10.7,5.8-15,9.8c0,0,0,0,0,0
	c-0.1,0.1-0.2,0.3-0.1,0.5C75.6,163.7,83.9,166,86.5,166z"/>
<path class="st6" d="M77.2,97.4c-15.8-8.2-33.6-13.5-48.1-14.6c-1.1-0.1-2.2-0.1-3.2-0.2c0.8-0.1,1.6-0.1,2.4-0.1
	c3.2-0.1,6.5,0.2,9.8,0.7c0,0,0,0,0,0c0.2,0,0.3,0,0.5,0.1c3.7,0.6,7.5,1.5,11.4,2.6c2.3,0.7,4.6,1.5,6.9,2.3c2.7,1,5.5,2.1,8.2,3.3
	c0,0,0,0,0.1,0c3,1.3,5.9,2.7,8.8,4.2c0.5,0.3,1,0.5,1.6,0.8C76.2,96.8,76.7,97.1,77.2,97.4z"/>
<path class="st6" d="M28.7,82.7c-1.9-0.1-2.9,0-2.9,0c0.6-0.3,1.4-0.3,2.2-0.1c0.1,0,0.2,0,0.2,0.1C28.4,82.6,28.6,82.6,28.7,82.7z"
	/>
<path class="st16" d="M97.5,117.7l-3.1,9.2l-0.2,0.6l-0.1,0.3c-0.2-0.3-0.5-0.7-0.7-1c0,0,0,0,0,0c-2.6-3.4-7.5-7.2-17.4-1.6
	c0,0-0.1,0-0.1,0c0,0,0,0,0,0c-0.3,0.1-0.6,0.1-0.9,0.2c0,0-0.1,0-0.1,0c0,0,0,0,0,0c0,0-0.1,0-0.1,0c-5.8,0.6-23-0.5-34.8-5.2
	c0,0-0.1,0-0.1,0c0,0,0,0,0,0c-5.1-2.1-9.2-4.8-10.9-8.3c0,0,0.4,0.2,1.1,0.6c3.8,2,16.5,8.2,22.3,3c0.4-0.3,0.7-0.7,1.1-1.2
	c-0.1-0.1-0.3-0.3-0.4-0.5c-2.6-2.8-11-13.2-14.5-19.8c0-0.1-0.1-0.1-0.1-0.2c-0.1-0.1-0.1-0.2-0.1-0.3c-1-2-1.5-3.5-1.2-4.4v0
	c0-0.1,0-0.1,0.1-0.2c0,0,0,0,0,0c0,0-0.1-0.1-0.1-0.1c-1.9-2-4.4-4.4-7.2-5.8c-0.3-0.1-0.5-0.3-0.8-0.4c-0.1-0.1-0.2-0.1-0.3-0.1
	c0.6,0,1.2,0,1.8,0.1c4.4,0.3,10.1,1.2,15.7,2.5c3,0.7,6,1.5,8.8,2.3c0.6,0.2,1.3,0.4,1.9,0.6c0.2,0.1,0.3,0.1,0.4,0.2
	c3.6,1.2,6.9,2.4,10.2,3.8c9.1,3.7,17.6,8.4,27.4,15c0.3,0.2,0.5,0.4,0.8,0.5c-6.8,2.3-11.9,5.4-12.5,7.6v0
	c-0.6,2.2,3.2,3.6,14.1,2.6C97.3,117.7,97.4,117.7,97.5,117.7z"/>
<path class="st7" d="M119.4,153.3L119.4,153.3c-0.5,3.5-2.9,7.9-5.5,11c-2.1,0.5-4.4,0.8-6.6,1c1.4-3.9,2.2-7.2,2.5-10.1
	c0-0.2,0-0.3,0.1-0.5c0.5-4.6-0.2-8-1.2-10.7c0,0,0,0,0,0c0.5-1.3,1.8-2.1,3.4-2.3l0-0.4c0.9-0.2,2.1-0.3,3.6-0.3h0.1c0,0,0,0,0,0
	c0.2,0,0.3,0.1,0.5,0.2l0.1-0.1l0.1-0.1h0.1c0.8,0,1.5,0,2.1,0h0c1,0.1,1.7,0.3,2,0.8c0,0,0,0,0,0s0,0,0,0c0,0,0,0.1,0,0.1
	c0.1,0.3,0.2,0.7,0,1.2c-0.1,0.5-0.4,1.1-0.8,1.8c0.1,0,0.3,0,0.6,0.1c0.3,0,0.5,0.1,0.8,0.2c0.9,0.4,1.7,1.1,0.4,2.8
	C121.7,148.1,125.3,149.9,119.4,153.3z"/>
<path class="st13" d="M93.8,127.4c-0.1-0.1-0.1-0.1-0.2-0.2c0,0-0.4-0.2-0.6-0.4c0-0.1-0.1-0.1-0.2-0.2c0,0,0,0,0,0c0,0,0,0,0,0
	c0,0,0,0,0,0c-0.5-0.6-3.2-2.5-3.5-2.7c-0.4-0.2-0.8-0.4-1.2-0.6c-0.3-0.1-0.5-0.2-0.8-0.3c-0.1,0-0.3-0.1-0.4-0.1
	c-0.3-0.1-0.5-0.2-0.8-0.2c-2.3-0.5-4.8-0.2-7,1.4c-1,0.4-2.2,0.7-3.6,1c0,0,0,0,0,0c-0.2,0-0.5,0.1-0.7,0.1c-0.1,0-0.2,0-0.3,0
	c0,0,0,0,0,0c0,0-0.1,0-0.1,0c-0.1,0-0.1,0-0.2,0c-8.9,1.2-23.1-0.3-33.6-5c-0.2-0.1-0.4-0.2-0.6-0.3c0,0-0.1,0-0.1,0c0,0,0,0,0,0
	c-3.8-1.7-7.1-3.9-9.4-6.5c-0.1-0.1-0.2-0.2-0.3-0.3c-0.4-0.4-0.7-0.9-1-1.4c0,0,16.3,9.6,23.1,3.5c0.2-0.3,0.4-0.6,0.6-0.9
	c0.1-0.1,0.1-0.2,0.2-0.3c0,0,0,0-0.1-0.1c0-0.1-0.1-0.1-0.2-0.3c-0.6-0.8-2.2-2.6-4-5c-0.3-0.3-0.5-0.7-0.8-1.1
	c-2.7-3.5-6.5-8.7-8.8-12.8c-0.2-0.3-0.3-0.5-0.4-0.8c0-0.1-0.1-0.1-0.1-0.2c-0.1-0.2-0.2-0.4-0.3-0.5c-0.6-1.3-1-2.4-1.1-3.3v0
	c0-0.1,0-0.2,0-0.3c0-0.2,0-0.5,0.1-0.6l0,0c-1.8-1.9-3.9-3.8-7.2-5c-1-0.4-2.2-0.7-3.4-1c0.1,0.4,0.2,0.8,0.4,1.2
	c0.1,0.3,0.2,0.7,0.3,1c1.4,4.8,2,8.8,2.2,12.1c0,0.8,0,1.6,0,2.3c0,0.8-0.1,1.6-0.2,2.3c0,0.5-0.1,0.9-0.2,1.3c0,0,0,0,0,0
	c0,0.3-0.1,0.5-0.2,0.8v0c0,0.2-0.1,0.4-0.2,0.7c-0.1,0.2-0.1,0.4-0.2,0.6c-0.1,0.2-0.1,0.4-0.2,0.6c-0.1,0.4-0.3,0.8-0.5,1.1
	c-0.1,0.2-0.2,0.3-0.3,0.5c-0.1,0.2-0.2,0.3-0.3,0.5c-0.1,0.2-0.2,0.3-0.3,0.5c-0.1,0.1-0.2,0.3-0.3,0.4c-0.6,0.8-1.3,1.6-2,2.2
	c-1,0.9-2,1.6-3,2.1c-0.2,0.1-0.3,0.2-0.4,0.2c2.1,6.3,5,12.2,8.6,17.6c0.1,0.1,0.2,0.3,0.3,0.4c7.8,11.8,18.8,21.3,31.7,27.4
	c0.1-0.2,0.3-0.4,0.4-0.5c0.2-0.3,0.5-0.6,0.7-0.9c0.4-0.5,0.8-1,1.1-1.5c0.3-0.4,0.6-0.8,0.9-1.2c0.1-0.1,0.2-0.3,0.3-0.4
	c0.7-0.9,1.4-1.8,1.9-2.4l-2.6,7.4l-0.2,0.6c2.4,1,4.8,2,7.3,2.7c0,0,0,0,0,0c0.1-0.2,0.3-0.3,0.4-0.5c0.3-0.3,0.5-0.6,0.8-1
	c0.9-1,1.8-2,2.8-3.1c0.3-0.3,0.5-0.5,0.8-0.8c0.3-0.3,0.5-0.5,0.8-0.8c0.8-0.8,1.7-1.7,2.7-2.5c0.5-0.4,0.9-0.8,1.4-1.2
	c0.7-0.6,1.5-1.2,2.2-1.8c0.8-0.6,1.5-1.2,2.3-1.7c0,0,0,0,0,0c1.1-0.8,2.2-1.5,3.4-2.2c0.2-0.1,0.4-0.2,0.6-0.4
	c0.4-0.2,0.9-0.5,1.3-0.7c0.7-0.3,1.4-0.7,2-1c0.2-0.1,0.3-0.1,0.4-0.2c0.2-0.1,0.4-0.2,0.7-0.3c0.3-0.1,0.6-0.2,0.8-0.3
	c0.1,0,0.3-0.1,0.4-0.1c0.2-0.1,0.4-0.1,0.7-0.2c0,0,0,0,0.1,0c0.2-0.1,0.5-0.2,0.7-0.2c0.1,0,0.2-0.1,0.3-0.1
	c0.3-0.1,0.7-0.2,1-0.3c1.8-0.4,3.5-0.6,5.3-0.6c0.4,0,0.8,0,1.2,0l-6.8-1c0,0,0,0,0,0c0.2,0,0.5-0.1,1-0.3c0.1,0,0.2,0,0.2-0.1
	c0.1,0,0.2-0.1,0.3-0.1c0.1,0,0.2-0.1,0.4-0.1c0.1,0,0.2-0.1,0.3-0.1c1.6-0.5,3.6-1.2,4.5-1.4c0,0,0,0,0,0c0,0,0,0,0,0
	c0.2,0,0.3-0.1,0.4-0.1l0,0h0c0,0,0.1,0,0.1,0l0.3-0.1C102.5,134.8,95.3,128.7,93.8,127.4z M87.1,139.5l-0.3-0.4c0,0.1,0,0.1,0,0.1
	l-6.9-8.2c0.1,0,0.2,0,0.3,0.1c0.1,0,0.2,0.1,0.3,0.1c0,0,0,0,0.1,0c0.2,0.1,0.3,0.1,0.5,0.2c0.3,0.1,0.5,0.3,0.8,0.5
	c0,0,0.1,0,0.1,0.1c0.1,0.1,0.3,0.2,0.4,0.3c0.1,0.1,0.3,0.2,0.4,0.3h0c0.2,0.1,0.3,0.3,0.5,0.4c0.1,0.1,0.2,0.2,0.4,0.3
	c0.1,0.1,0.2,0.2,0.3,0.3c0.1,0.1,0.2,0.2,0.3,0.3c0.1,0.1,0.2,0.2,0.3,0.3c0.1,0.1,0.2,0.2,0.3,0.3c0.1,0.1,0.2,0.2,0.3,0.3
	c0.1,0.1,0.2,0.3,0.3,0.4c0.1,0.1,0.2,0.2,0.3,0.3c0.2,0.3,0.4,0.5,0.6,0.8c0.1,0.1,0.2,0.2,0.2,0.4c0.1,0.2,0.2,0.3,0.3,0.5
	c0,0,0,0.1,0,0.1c0.1,0.2,0.2,0.3,0.2,0.5c0,0,0,0,0,0c0.1,0.2,0.1,0.3,0.2,0.5c0,0.1,0.1,0.2,0.1,0.3c0.1,0.2,0.1,0.4,0.1,0.6
	c0,0,0,0,0,0C87.2,139.2,87.1,139.4,87.1,139.5z"/>
<path class="st17" d="M67.1,152.1l-2.8,8c-0.8-0.4-1.7-0.7-2.5-1.1C63.8,156.3,65.8,153.5,67.1,152.1z"/>
<path class="st6" d="M129.9,76.5l-0.2-1.4c-2.3-2.8-4.8-5.1-7.1-6.9c-0.5-0.4-0.9-0.7-1.4-1c-0.6-0.5-1.3-0.9-1.9-1.4
	c-0.2-0.1-0.4-0.3-0.6-0.4c-1.7-1.1-3.6-2.1-5.6-3.1c-0.5,0.1-1,0.2-1.6,0.2c0.5-0.1,1-0.2,1.5-0.3c0.2-4,0.4-7.5,0.5-10.5
	c-0.3-19.1,1.3-16.8-3.2-22.6c-6.2-0.9-15.4-0.7-17.3-2.3c-4.4-2.9-7-3.9-8.4-4.2c0.3,0.1,0.7,0.2,1.1,0.5c-0.7-0.3-1.3-0.4-1.8-0.4
	c0.1-0.1,0.2-0.1,0.4-0.1c-1.2-0.2-1.5,0.1-1.5,0.1c-4,0.9-10.6,8.2-15.3,14.1c0,0-0.1,0.2-0.3,0.3c-0.1,0.1-0.2,0.2-0.2,0.3
	c0,0,0,0-0.1,0.1c0,0.1-0.1,0.1-0.1,0.2c-0.9,1.1-1.7,2.2-2.4,3.1c-0.1,0.2-0.2,0.3-0.3,0.5c-0.5,0.7-0.9,1.2-1.3,1.7
	c-0.1,0.1-0.1,0.2-0.2,0.3c-0.1,0.1-0.2,0.2-0.2,0.3c0,0-0.1,0.1-0.1,0.1c0,0-0.1,0.1-0.1,0.1c0,0.1-0.1,0.1-0.1,0.1
	c-0.1,0.1-0.2,0.2-0.2,0.3c-7-0.4-19.4,1.7-19.4,1.7l-0.4,1.4c1.8,0.9,9.7,3.1,17.4,5.1c-1.6,1.9-3.2,3.9-4.7,6
	c-7,8.9-10.3,13.7-16.1,24c7.9,0.3,18.3,1.3,29.1,4.4c0,0,0.1,0,0.2,0l6.1,1.2c0,0,0,0,0,0c0.1-0.1,0.3-0.2,0.4-0.3
	c0.1-0.1,0.3-0.2,0.4-0.3c0.1-0.1,0.2-0.1,0.3-0.2c0.3-0.2,0.7-0.3,1-0.4c0.1,0,0.2-0.1,0.4-0.1c0.1,0,0.3-0.1,0.4-0.1
	c0.1,0,0.1,0,0.2,0c0.1,0,0.2,0,0.3,0c0.2,0,0.3,0,0.5,0c0.1,0,0.2,0,0.3,0c0.1,0,0.3,0,0.4,0c0,0,0,0,0,0c0.2,0,0.4,0,0.6,0
	c0.1,0,0.3,0,0.4,0c0.2,0,0.4,0,0.6,0c0.2,0,0.4,0,0.6,0.1c0.3,0,0.6,0.1,0.8,0.1c0,0,0,0,0.1,0h0c1.4,0.2,2.8,0.4,4.2,0.7
	c0.2,0,0.4,0.1,0.6,0.1c2.2,0.5,4.4,1.2,6.6,2c0,0,0,0,0,0c0.2,0.1,0.3,0.1,0.5,0.2c1.2,0.4,2.3,0.8,3.5,1.2c0,0,0,0,0,0
	c6.5,2.4,13,5,19.5,5.2c2.9-0.1,7.4,1.9,10.2,0.7c0.9-0.3,1.5-1,1.8-1.7l0.1-0.1c0,0,0,0,0-0.1c0,0,0,0,0,0c0.2-0.7-0.1-1.5-1-2.2
	c0,0,0,0,0,0c-0.5-1-1.1-1.8-1.5-1.4c-1.4-1.2-3.1-2.8-4.7-5.2c-2-3.4-4.8-8-6.8-11.3c-0.1,0-0.3-0.1-0.5-0.1
	c-0.2-0.1-0.5-0.1-0.7-0.2C120.9,76.4,130.2,77.4,129.9,76.5z M116.7,96.3C116.7,96.3,116.7,96.3,116.7,96.3
	C116.7,96.4,116.7,96.4,116.7,96.3C116.7,96.4,116.7,96.4,116.7,96.3z"/>
<path class="st18" d="M103.7,142.7c-3.1,0.7-32.5,20.5-30.8,18.5c0.3-0.3,0.6-0.7,0.9-1c0.3-0.3,0.6-0.7,0.9-1c0.9-1,1.9-2,2.9-3
	c0.5-0.5,1-1,1.6-1.5c0.8-0.8,1.6-1.5,2.5-2.2c0.8-0.7,1.7-1.4,2.6-2.1c0,0,0,0,0,0C90.1,146,96.9,142.6,103.7,142.7z"/>
<path class="st19" d="M87.1,139.5l-0.3-0.4c0,0.1,0,0.1,0,0.1l-6.9-8.2C83.3,131.8,88,138.4,87.1,139.5z"/>
<path class="st6" d="M0,17.8"/>
<path class="st20" d="M98.5,89.3c-1.6,0.1-3.2,0.3-4.7,0.5c-5.2,0.7-9.5,1.8-12.2,2.5c-1.6,0.5-2.7,0.8-2.9,0.9
	c0.8-0.4,1.7-0.7,2.5-1c3.7-1.3,7.9-2.1,12-2.5c0,0,0,0,0,0C95,89.5,96.8,89.4,98.5,89.3z"/>
<path class="st20" d="M117.5,90.3c0,0-6.9-1.1-15.7-1.1c-1.1,0-2.2,0-3.3,0.1c1-0.1,2-0.2,3-0.2C106.7,88.9,112.2,89.1,117.5,90.3z"
	/>
<path class="st20" d="M78.7,85.1c0,0,21.6-3.3,38.7,4C117.4,89.1,94.5,81,78.7,85.1z"/>
<path class="st20" d="M90.9,87.2c-1.5,0.1-2.9,0.3-4.2,0.5c-4.5,0.6-8.3,1.5-11.1,2.2c-2.3,0.6-3.8,1.1-4.3,1.2
	c1.2-0.5,2.5-1,3.8-1.4c3.5-1.1,7.3-1.8,11-2.1C87.7,87.3,89.3,87.2,90.9,87.2z"/>
<path class="st20" d="M109.9,88.2c0,0-4.7-0.8-11.3-1h0c-2.4-0.1-4.9-0.1-7.6,0c2.3-0.2,4.7-0.3,7.2-0.3c0,0,0,0,0,0
	C102,87,106,87.3,109.9,88.2z"/>
<path class="st0" d="M73.7,88.6c0,0,1.8-3.6,10.9-1l-9.3,1.6L73.7,88.6z"/>
<path class="st0" d="M76.3,89.7l5.3,2.2c0,0,5.9-1.8,10.7-2.3c0,0-6.1-1.8-6.5-1.8C85.4,87.8,76.8,89.7,76.3,89.7z"/>
<path class="st21" d="M82.3,92.2l2.1,1c0,0,10.1-2.2,11.9-2.1L93.1,90C93.1,90,83.7,91.6,82.3,92.2z"/>
<path class="st6" d="M81.8,86.8"/>
<path class="st22" d="M93.3,89.6c-4.1,0.4-8.3,1.2-12,2.5c-1.9-0.9-3.8-1.6-5.7-2.4c2.8-0.7,6.6-1.6,11.1-2.2
	C88.9,88.2,91.1,88.9,93.3,89.6z"/>
<path class="st0" d="M97.2,91.1C97.2,91.1,97.2,91.1,97.2,91.1c-0.1,0-0.1,0-0.1,0c-4.3,0.4-8.9,1.1-13.1,2.4
	c-0.8-0.4-1.6-0.8-2.4-1.1c2.7-0.7,7-1.8,12.2-2.5C94.9,90.2,96.1,90.7,97.2,91.1z"/>
<path class="st6" d="M169.4,113.7c-0.8,0.2-1.7-0.2-2-0.9l-3.6,0v0.1c0,1.6-0.3,3.1-0.8,4.4l2.2,1.7c0.4-0.3,0.9-0.3,1.4-0.1
	c0.9,0.3,1.3,1.3,1,2.2c-0.3,0.9-1.3,1.3-2.1,1c-0.8-0.3-1.2-1.2-1-2l-2-1.5c-0.9,1.7-2.2,3.1-3.9,4.2l1,1.7c0.5-0.1,1,0,1.4,0.4
	c0.7,0.6,0.8,1.7,0.2,2.4c-0.6,0.7-1.6,0.8-2.3,0.2c-0.6-0.6-0.7-1.5-0.3-2.2l-1.1-1.7c-1.5,0.7-3.1,1.1-4.8,1.1
	c-0.4,0-0.8,0-1.3-0.1l-0.6,3.4c0.4,0.3,0.7,0.7,0.7,1.2c0.1,0.9-0.6,1.8-1.5,1.9c-0.9,0.1-1.7-0.6-1.8-1.5
	c-0.1-0.9,0.5-1.6,1.3-1.8l0.6-3.4c0,0-0.1,0-0.1,0c-2.5,4.4-6.1,8.6-9.7,11c-3.6,2.5-7.5,3.8-10.9,3.6c0.1,0,0.2,0.1,0.3,0.1
	c-1.5-0.2-3-0.6-4.3-1.4c-1.1,1.7-2.5,3.8-4.4,6.5c0,0,0,0,0,0.1c0.1-0.8,0.1-1.3,0-1.8c0,0,0,0,0,0c0,0,0-0.1-0.1-0.2
	c0.1,0.3,0.2,0.7,0,1.2c-0.1,0.5-0.4,1.1-0.8,1.8c0.1,0,0.3,0,0.6,0.1c0.3,0,0.5,0.1,0.8,0.2c0.9,0.4,1.7,1.1,0.4,2.8
	c0,0,3.6,1.8-2.4,5.2h0c-0.5,3.5-2.9,7.9-5.5,11c-2.1,0.5-4.4,0.8-6.6,1c1.4-3.9,2.2-7.2,2.5-10.1c0-0.2,0-0.3,0.1-0.5
	c0.5-4.6-0.2-8-1.2-10.7c0,0,0,0,0,0c0.5-1.3,1.8-2.1,3.4-2.3l0-0.4c0.9-0.2,2.1-0.3,3.6-0.3h0.1c0,0,0,0,0,0c0,0,0,0-0.1,0l5.8-6.6
	l0,0c-17.6-9.2,10.6-53,25.7-36.8c0,0,0,0,0,0c-1.4-0.5-2.9-0.6-4.4-0.3c1.2-0.1,2.4,0,3.6,0.4c0,0,0,0,0,0c2.4,0.5,4.2,1.9,5.4,3.7
	h0l0.2-3.1v0c-0.4-0.2-0.8-0.6-0.9-1.1c-0.2-0.9,0.3-1.8,1.2-2c0.9-0.2,1.8,0.4,2,1.3c0.2,0.9-0.3,1.7-1,2l-0.2,3
	c1.8,0,3.5,0.6,5,1.4l1.1-1.2v0c-0.2-0.5-0.2-1,0-1.4c0.4-0.8,1.4-1.2,2.2-0.8c0.8,0.4,1.1,1.5,0.7,2.3c-0.4,0.8-1.3,1.1-2,0.8
	l-0.9,1c1.2,0.9,2.3,2.1,3.1,3.5l2.1-1c0-0.5,0.2-1,0.6-1.3c0.7-0.6,1.8-0.5,2.3,0.2c0.6,0.7,0.5,1.8-0.2,2.4
	c-0.6,0.5-1.6,0.5-2.2,0l-2,0.9c0.5,1,0.8,2.1,0.9,3.2l3.7,0c0.2-0.5,0.6-0.8,1-1c0.9-0.3,1.8,0.2,2.1,1.2
	C170.8,112.5,170.3,113.4,169.4,113.7z"/>
<path class="st20" d="M77.5,95.8c0,0,20.3-7.9,38.7-4.4C116.1,91.5,92,88.5,77.5,95.8z"/>
<circle class="st23" cx="96.7" cy="83.7" r="82.7"/>
<circle class="st24" cx="110.6" cy="76.7" r="0.4"/>
<g>
	<path class="st25" d="M104.3,38.3c-19-1.2-20.4-15.6-20.4-15.6c0.5,0,1.1,0.1,1.8,0.4c0,0,0,0,0.1,0c1.5,0.7,3.4,2.1,5.1,3.6
		c0,0,0,0,0,0c1.2,1.1,2.3,2.4,3.1,3.4C96.3,33.9,104.3,38.3,104.3,38.3z"/>
	<path class="st25" d="M113.5,51.7c-0.1,3-0.2,6.5-0.5,10.5L113.5,51.7z"/>
	<path class="st25" d="M66.9,37.5c-0.2,0.3-0.6,0.8-1,1.3c-0.2,0.3-0.5,0.6-0.7,0.9c-1.2,1.5-2.5,3.2-3,3.9c0.1-0.1,0.1-0.2,0.2-0.3
		c0.1-0.1,0.1-0.2,0.2-0.3c0.3-0.5,0.8-1,1.3-1.7c0.1-0.1,0.2-0.3,0.3-0.5c0.7-0.9,1.5-2,2.4-3.1C66.8,37.6,66.8,37.6,66.9,37.5z"/>
	<path class="st25" d="M70.1,48.9c-3.6-1.6-3.7-1.6-5-2.2c0.1-0.1,0.3-0.2,0.4-0.3C66.8,47.2,68.4,48.1,70.1,48.9z"/>
	<path class="st25" d="M85.2,56.9C85.2,56.9,85.2,56.9,85.2,56.9c-0.1,0-0.2,0-0.2,0L85.2,56.9z"/>
	<path class="st14" d="M129.9,76.5c0.3,0.9-9-0.1-16.4-1.8c0,0,0,0-0.1,0c-1.3-0.3-2.6-0.6-3.7-1c0,0,0,0,0,0
		c-0.2-0.1-0.4-0.1-0.6-0.2c-1.3-0.4-2.3-0.9-3.1-1.3h0c-2-0.8-4.2-1.8-6.5-2.9c-0.3-0.2-0.7-0.3-1-0.5c-0.4-0.2-0.8-0.4-1.2-0.6
		c-0.2-0.1-0.4-0.2-0.6-0.3c-3.5-1.7-7.2-3.6-10.8-5.4l-0.3-0.2l-0.4-0.2l-0.6-0.3c-2-1-3.9-2-5.7-2.9c-0.1,0-0.1-0.1-0.2-0.1
		c-1.2-0.6-2.4-1.2-3.6-1.7c-0.6-0.4-2.9-1.1-6-2c-0.1,0-0.2,0-0.2-0.1c-2.8-0.8-6.1-1.7-9.5-2.6c-7.7-2.1-15.5-4.2-17.4-5.1
		l0.4-1.4c0,0,12.4-2.1,19.4-1.7c-4.8-0.2-16.3,2.1-16.3,2.1c9.3,2.5,19.1,3.7,24.7,2.5h0c2.9,1.2,7.1,3,12.2,4.8
		c0.1,0,0.1,0,0.2,0.1c0,0.8,0.2,1.6,0.5,2.2c0.2,0,0.4,0.1,0.6,0.2c0.1,0,0.2,0.1,0.3,0.1c0.3,0.1,0.6,0.2,0.9,0.4c0,0,0.1,0,0.1,0
		c0.1,0,0.2,0.1,0.3,0.1c0,0,0.1,0.1,0.1,0.1c0,0,0,0,0-0.1c1.9,0,3.8,0.2,5.7,0.5c0.6,0.1,1.1,0.2,1.7,0.3c0,0,0,0,0,0
		c1.8,0.3,3.5,0.7,5.3,1.1c0,0,0.1,0,0.1,0c3.2,0.8,6.4,1.6,9.6,2.4c0.2,0,0.4,0.1,0.6,0.1c1.6,0.4,3.1,0.7,4.7,0.9
		c-0.5,0.1-1,0.2-1.5,0.3c-0.8,0.1-1.7,0.2-2.5,0.2c-1.4,0.1-2.9,0.1-4.4,0c0,0,0,0-0.1,0c-1.3,0-2.5-0.1-3.8-0.3
		c-0.6-0.1-1.3-0.1-1.9-0.2c-3.1-0.4-6-1-8.6-1.7c-0.6-0.2-1.2-0.3-1.7-0.5c-0.3-0.1-0.6-0.2-0.9-0.3c0.9,0.8,1.9,1.6,3,2.4
		c1.1,0.8,2.2,1.6,3.5,2.3c1.2,0.7,2.5,1.4,3.8,2.1c1.7,0.9,3.6,1.8,5.4,2.5c0.3,0.1,0.7,0.3,1.1,0.4c4.4,1.8,8.9,3.2,13.1,4.2
		c0.7,0.2,1.4,0.3,2,0.4c4.2,0.8,7.9,1.2,10.5,0.8L129.9,76.5z"/>
	<path class="st15" d="M104.3,38.3c-19-1.2-20.4-15.6-20.4-15.6c0.5,0,1.1,0.1,1.8,0.4c0,0,0,0,0.1,0c1.5,0.7,3.4,2.1,5.1,3.6
		c0,0,0,0,0,0c1.2,1.1,2.3,2.4,3.1,3.4C96.3,33.9,104.3,38.3,104.3,38.3z"/>
	<path class="st26" d="M113.5,51.7L113,62.2c-6.3-1.1-12.7-2.7-18.7-4.5c3.8-0.9,7.2-4.5,8.4-7.9C109.4,51.3,113.5,51.7,113.5,51.7z
		"/>
	<path class="st26" d="M82.1,50.2L82.1,50.2c0,0.9,0,1.8,0.2,2.8c0,0.3,0,0.5,0,0.8c-0.1,0-0.1,0-0.2-0.1c-5-1.8-9.2-3.6-12.2-4.8h0
		c0,0,0,0-0.1,0c-0.4-0.1-0.8-0.3-1.1-0.5c0,0,0,0,0,0c-0.5-0.3-1-0.6-1.5-0.9c-0.1-0.1-0.2-0.1-0.2-0.2c-1.2-0.8-2.4-1.7-3.5-2.3
		c0,0,0,0-0.1,0c-0.7-0.4-1.3-0.6-1.8-0.7c0.1-0.1,0.2-0.2,0.2-0.3c0,0,0-0.1,0.1-0.1c0,0,0-0.1,0.1-0.1c0,0,0.1-0.1,0.1-0.1
		c0.5-0.7,1.8-2.4,3-3.9c0.2-0.3,0.5-0.6,0.7-0.9c0.4-0.5,0.7-0.9,1-1.3c0,0,0,0,0.1-0.1c0.1-0.1,0.2-0.2,0.2-0.3
		c0.2-0.2,0.2-0.3,0.3-0.3c5.7,3,11.8,5.7,17.6,7.8C83.5,45.8,82.3,47.6,82.1,50.2z"/>
	<path class="st27" d="M102.9,49.5c-1.5,4.6-6.6,9.5-11.9,8c4.8-3.3,8-9.4,8.8-14.1c-3.3,1.1-5.9,1.7-8.5,3.3
		c-0.1,0.1-0.3,0.2-0.2,0.3c-5.4,3.5-3.3,7.1-5.8,9.9c-0.8-0.2-1.5-0.7-2.4-0.8c-3.1-8.4,3-14,9.2-14.2
		C98.9,40.8,107.7,39.8,102.9,49.5z"/>
	<path class="st28" d="M99.7,43.3c-0.9,4.8-4.1,10.7-8.8,14.1l-5.7-0.5c2.5-2.8,0.4-6.4,5.8-9.9c-0.1-0.1,0.1-0.2,0.2-0.3
		C93.9,45,96.5,44.4,99.7,43.3z"/>
	<path class="st15" d="M129.7,75.1c-2.6,0.4-6.3,0-10.5-0.8c-0.7-0.1-1.3-0.3-2-0.4c-4.1-1-8.7-2.4-13.1-4.2
		c-0.4-0.1-0.7-0.3-1.1-0.4c-1.8-0.8-3.7-1.6-5.4-2.5c-1.3-0.7-2.5-1.4-3.8-2.1c-1.2-0.7-2.4-1.5-3.5-2.3c-1.1-0.8-2.1-1.6-3-2.4
		c0.3,0.1,0.6,0.2,0.9,0.3c0.5,0.2,1.1,0.3,1.7,0.5c2.5,0.7,5.5,1.3,8.6,1.7c0.6,0.1,1.3,0.2,1.9,0.2c1.3,0.1,2.5,0.2,3.8,0.3
		c0,0,0,0,0.1,0c1.5,0,3,0,4.4,0c0.9,0,1.7-0.1,2.5-0.2c0.5-0.1,1.1-0.2,1.6-0.2c2.1,1,3.9,2,5.6,3.1c0.2,0.1,0.4,0.3,0.6,0.4
		c0.7,0.4,1.3,0.9,1.9,1.4c0.5,0.3,0.9,0.7,1.4,1c0.7,0.5,1.4,1.1,2,1.8c0.1,0.1,0.2,0.1,0.2,0.2C126.4,71.6,128,73.2,129.7,75.1z"
		/>
	<path class="st25" d="M129.7,75.1c-1.6-1.9-3.2-3.5-4.8-4.9c-0.1-0.1-0.2-0.1-0.2-0.2c-2.2-1.9-4.2-3.4-6-4.6
		c0.2,0.1,0.4,0.3,0.6,0.4c0.6,0.4,1.3,0.9,1.9,1.4c0.5,0.3,0.9,0.7,1.4,1C125,70,127.4,72.3,129.7,75.1z"/>
	<path class="st15" d="M70.1,48.9c-5.6,1.2-15.4-0.1-24.7-2.5c0,0,11.5-2.3,16.3-2.1c1.5,0,1.2,0.5,3.8,2
		C65.3,46.4,66.4,47.3,70.1,48.9z"/>
</g>
</svg>
