<?xml version="1.0" encoding="utf-8"?>
<!-- Generator: Adobe Illustrator 25.2.3, SVG Export Plug-In . SVG Version: 6.00 Build 0)  -->
<svg version="1.1" id="Layer_1" xmlns="http://www.w3.org/2000/svg" xmlns:xlink="http://www.w3.org/1999/xlink" x="0px" y="0px"
	 viewBox="0 0 161 185" style="enable-background:new 0 0 161 185;" xml:space="preserve">
<style type="text/css">
	.st0{fill:#F1938C;stroke:#3C3C3B;stroke-width:2;stroke-miterlimit:10;}
</style>
<path class="st0" d="M148.6,93.7c-3.2,1-6.5-0.7-7.8-3.7L127,90.2v0.5c0,6.1-1.2,11.9-3.3,17.2l8.6,6.6c1.6-1,3.6-1.2,5.5-0.5
	c3.3,1.3,5,5.1,3.8,8.6c-1.2,3.4-5,5.2-8.3,3.9c-3.1-1.1-4.8-4.5-4.1-7.7l-7.9-6c-3.6,6.7-8.8,12.2-15.1,16.2l4.1,6.5
	c1.9-0.4,3.8,0.2,5.3,1.5c2.7,2.4,3,6.6,0.6,9.3c-2.3,2.8-6.4,3.1-9.1,0.7c-2.5-2.2-2.9-6-1.1-8.7l-4.2-6.8
	c-5.6,2.8-12,4.3-18.6,4.3c-1.7,0-3.3-0.1-4.9-0.3l-2.5,13.2c1.6,1.1,2.6,2.8,2.8,4.9c0.4,3.7-2.3,6.9-5.8,7.2c-3.5,0.4-6.7-2.3-7-6
	c-0.3-3.3,1.9-6.4,5-7.1l2.5-13.2c-0.2,0-0.3-0.1-0.5-0.1c-6-1.5-11.5-4.3-16.2-8.1l-8.3,9.2c0.8,1.8,0.8,3.8-0.1,5.7
	c-1.6,3.3-5.5,4.6-8.6,3c-0.2-0.1-0.3-0.2-0.4-0.3c-0.1,0-0.2-0.1-0.2-0.2c-2.7-1.8-3.7-5.4-2.3-8.5c1.5-3,4.9-4.4,7.9-3.3l8.1-9.1
	c-5.4-5.4-9.4-12.2-11.5-19.8l-15.9,3.8c-0.4,1.9-1.4,3.6-3.2,4.6c-3.1,1.8-7,0.7-8.8-2.5c-1.7-3.2-0.6-7.3,2.5-9
	c2.8-1.7,6.4-0.9,8.3,1.8l15.9-3.8c-0.4-2.3-0.6-4.8-0.6-7.3c0-3.3,0.4-6.6,1-9.7l-5.4-1.6c-1.2,1.5-3,2.5-5,2.5
	c-3.6,0-6.5-3-6.5-6.7c0-3.7,2.9-6.7,6.5-6.7c3.3,0,6,2.5,6.3,5.8l5.5,1.6c2.3-7,6.3-13.1,11.4-18.1l-4.3-6.1
	c-1.8,0.4-3.8,0-5.4-1.2C40.6,48.1,40,44,42.2,41c2.2-2.9,6.3-3.4,9.1-1.2c2.6,2.1,3.2,5.8,1.6,8.6l4.2,5.9c3-2.3,6.4-4.2,9.9-5.7h0
	c3.9-1.6,8-2.6,12.3-3h0.1l0.7-12.2v0c-1.7-0.8-2.9-2.4-3.4-4.4c-0.8-3.5,1.4-7.1,4.9-7.9c3.5-0.8,6.9,1.4,7.7,5
	c0.7,3.3-1.1,6.6-4.1,7.8l-0.6,11.6c7.1,0.2,13.8,2.2,19.6,5.6l4.1-4.6v0c-0.7-1.8-0.7-3.8,0.2-5.6c1.6-3.3,5.5-4.6,8.7-3
	c3.2,1.6,4.4,5.6,2.9,8.9c-1.5,3-4.9,4.4-7.9,3.3l-3.5,3.9c4.9,3.6,9,8.2,12.1,13.6l8.1-3.7c0-1.9,0.8-3.8,2.3-5.1
	c2.7-2.3,6.8-2,9.1,0.8c2.3,2.8,1.9,7-0.8,9.4c-2.5,2.1-6.2,2-8.5-0.2l-7.9,3.6c1.8,3.9,2.9,8.2,3.5,12.6l14.3-0.1
	c0.7-1.8,2.2-3.2,4.1-3.8c3.4-1,7,1,8,4.5C154,89,152,92.7,148.6,93.7z"/>
</svg>
